<svg xmlns="http://www.w3.org/2000/svg" xmlns:xlink="http://www.w3.org/1999/xlink" fill="none" version="1.1" width="32" height="32" viewBox="0 0 32 32"><defs><mask id="master_svg0_1_006782"><g><path d="M0,0L32,0L32,32L0,32L0,0Z" fill-rule="evenodd" fill="#FFFFFF" fill-opacity="1"/></g></mask></defs><g><g><g></g><g mask="url(#master_svg0_1_006782)"><g><path d="M15.999913092833594,0C24.836713092833595,0,32.0000130928336,7.16332,32.0000130928336,16C32.0000130928336,24.8368,24.836713092833595,32.0001,15.999913092833594,32.0001C7.163673092833594,32.0001,-0.00008690716640558094,24.8368,-0.00008690716640558094,16C-0.00008690716640558094,7.16332,7.163673092833594,0,15.999913092833594,0L15.999913092833594,0Z" fill-rule="evenodd" fill="#4469F8" fill-opacity="1"/></g></g></g><g><path d="M16.24952907348633,5.999985274863965L10.000019073486328,16.185345640563966L16.249559073486328,19.813745640563965L16.249559073486328,19.813545640563966L22.49811907348633,16.185245640563963L22.49831907348633,16.185345640563966L22.49821907348633,16.185145640563967L22.49831907348633,16.185145640563967L22.49811907348633,16.185045640563963L16.249579073486327,6.000029162663965L16.249559073486328,5.999945640563965L16.24953907348633,5.999965458863965L16.24952907348633,5.999945640563965L16.24952907348633,5.999985274863965ZM16.249559073486328,13.393265640563964L16.248329073486328,13.395265640563965L16.24952907348633,13.394735640563965L16.24952907348633,13.394475640563964L21.462019073486328,15.722315640563965L16.249549073486328,13.393275640563964L16.249559073486328,13.393265640563964ZM16.249559073486328,20.975645640563965L16.249559073486328,20.976445640563966L22.50271907348633,17.348845640563965L16.24952907348633,26.000045640563965L16.24952907348633,25.999845640563965L10.000019073486328,17.349045640563965L16.249559073486328,20.975645640563965Z" fill-rule="evenodd" fill="#FFFFFF" fill-opacity="1"/></g></g></svg>