<svg xmlns="http://www.w3.org/2000/svg" xmlns:xlink="http://www.w3.org/1999/xlink" fill="none" version="1.1" width="32" height="32" viewBox="0 0 32 32"><g><g><path d="M16,0C24.8368,0,32.0001,7.16332,32.0001,16C32.0001,24.8368,24.8368,32.0001,16,32.0001C7.16376,32.0001,0,24.8368,0,16C0,7.16332,7.16376,0,16,0L16,0Z" fill-rule="evenodd" fill="#D655FF" fill-opacity="1"/></g><g><path d="M17.658876784362793,7.28376C17.658876784362793,6.971103,17.457506784362792,6,16.328216784362795,6C15.198926784362794,6,15.044956784362792,6.971103,15.044956784362792,7.28376L15.044956784362792,8.28387C13.446796784362792,8.44984,11.724446784362794,9.15624,10.624146784362793,10.51854C9.523852784362793,11.88084,9.000086784362793,13.62326,9.000086784362793,15.7821C9.000086784362793,17.9707,9.404914784362793,19.7924,10.454636784362792,21.363599999999998C11.504366784362793,22.9347,13.203646784362792,23.4032,15.044956784362792,23.6265L15.044956784362792,24.8379C15.044956784362792,25.1356,15.252086784362792,26,16.328216784362795,26C17.404356784362793,26,17.658876784362793,25.1356,17.658876784362793,24.8379L17.658876784362793,23.6488C18.587016784362795,23.5446,19.460686784362792,23.3138,20.179286784362795,22.9565C20.897786784362793,22.5992,21.492886784362796,22.1562,21.964386784362794,21.6277Q22.671786784362794,20.834899999999998,22.986086784362794,19.9192Q23.03108678436279,19.762900000000002,23.053486784362793,19.5731C23.068486784362793,19.4465,23.075986784362794,19.323700000000002,23.075986784362794,19.2046C23.075986784362794,18.802599999999998,22.944986784362793,18.475099999999998,22.682986784362793,18.222C22.420986784362793,17.9688,22.087886784362794,17.8423,21.683786784362795,17.8423C21.384386784362793,17.8423,21.12608678436279,17.9279,20.909086784362792,18.0991C20.691986784362793,18.2703,20.50858678436279,18.5048,20.358886784362795,18.802599999999998C20.134386784362793,19.3684,19.797486784362793,19.837400000000002,19.348386784362795,20.209600000000002C18.899316784362792,20.5818,18.302586784362795,20.834899999999998,17.658876784362793,20.968899999999998L17.658876784362793,10.919139999999999C18.287616784362793,11.05313,18.876866784362793,11.306239999999999,19.325986784362794,11.67845C19.77508678436279,12.05066,20.104386784362795,12.51965,20.313986784362793,13.08541Q20.538586784362792,13.532070000000001,20.875386784362792,13.7889C21.099886784362795,13.96011,21.376886784362792,14.04572,21.706186784362792,14.04572Q22.312486784362793,14.04572,22.682986784362793,13.666070000000001Q23.053486784362793,13.28641,23.053486784362793,12.68342C23.053486784362793,12.549430000000001,23.042286784362794,12.42287,23.019786784362793,12.30377C22.997386784362792,12.184660000000001,22.971186784362793,12.06555,22.94118678436279,11.946439999999999C22.626886784362792,11.02335,22.016786784362793,10.21565,21.111186784362793,9.523340000000001C20.20548678436279,8.83102,19.021186784362794,8.41042,17.658876784362793,8.26154L17.658876784362793,7.28376ZM11.831626784362793,15.94407C11.831626784362793,11.89454,13.950906784362793,11.18229,14.817496784362792,10.96387L14.817496784362792,20.924300000000002C13.950906784362793,20.624499999999998,11.831626784362793,19.9936,11.831626784362793,15.94407Z" fill-rule="evenodd" fill="#FFFFFF" fill-opacity="1"/></g></g></svg>