<svg xmlns="http://www.w3.org/2000/svg" xmlns:xlink="http://www.w3.org/1999/xlink" fill="none" version="1.1" width="32" height="32" viewBox="0 0 32 32"><g><g><g><path d="M16,0C24.8368,0,32.0001,7.16332,32.0001,16C32.0001,24.8368,24.8368,32.0001,16,32.0001C7.16376,32.0001,0,24.8368,0,16C0,7.16332,7.16376,0,16,0L16,0Z" fill-rule="evenodd" fill="#5C14C4" fill-opacity="1"/></g></g><g transform="matrix(-1,0,0,1,54.9140625,0)"><g transform="matrix(-0.7071067094802856,0.7071067094802856,-0.7071067094802856,-0.7071067094802856,100.28471226511465,-1.1203425398416584)"><path d="M59.978629648437504,36.86267265625Q59.7137296484375,37.88207265625,59.3397596484375,38.79617265625Q58.6564596484375,40.466472656250005,57.7116696484375,41.38077265625Q56.6895596484375,42.369872656249996,55.4983596484375,42.369872656249996Q54.3071596484375,42.369872656249996,53.2850496484375,41.38077265625Q52.3402496484375,40.466472656250005,51.6569396484375,38.79617265625Q50.3746801614375,35.66187265625,50.3746661544375,31.28997265625Q50.3746599814375,29.363342656249998,50.6236646484375,27.67706265625C51.2777316484375,27.52880265625,51.9763496484375,27.40942265625,52.7092296484375,27.32315265625Q52.3746596484375,29.12819265625,52.374669648437504,31.28997265625Q52.3746796484375,35.26857265625,53.5080296484375,38.038972656249996Q54.0325096484375,39.32097265625,54.6758696484375,39.94357265625Q55.1164296484375,40.369872656249996,55.4983596484375,40.369872656249996Q55.8802796484375,40.369872656249996,56.3208396484375,39.94357265625Q56.9641896484375,39.32097265625,57.4886696484375,38.03887265625Q57.6645096484375,37.60907265625,57.8130696484375,37.15017265625Q58.9407896484375,37.05477265625,59.978629648437504,36.86267265625ZM60.3736396484375,34.898372656250004Q60.6219896484375,33.21397265625,60.6219896484375,31.289872656249997Q60.6219896484375,26.91801265625,59.3397196484375,23.78366265625Q58.6563996484375,22.11336265625,57.7116096484375,21.19906565625Q56.6894896484375,20.20994401025,55.4982896484375,20.20994782425Q54.3070896484375,20.20995163925,53.2849796484375,21.19907965625Q52.3401896484375,22.11338265625,51.6568896484375,23.78368265625Q51.2837906484375,24.69570265625,51.0192556484375,25.71249265625Q52.0572796484375,25.520142656250002,53.1852596484375,25.42454265625Q53.3331296484375,24.96836265625,53.5079796484375,24.54095265625Q54.0324596484375,23.25888265625,54.675819648437496,22.63629265625Q55.1163696484375,22.20995265625,55.4982996484375,22.20994265625Q55.8802196484375,22.20994265625,56.3207796484375,22.63628265625Q56.9641396484375,23.25887265625,57.4886296484375,24.54093265625Q58.6219796484375,27.31129265625,58.6219896484375,31.289872656249997Q58.6219996484375,33.44867265625,58.2883396484375,35.25177265625C59.0210796484375,35.16567265625,59.7196096484375,35.04647265625,60.3736396484375,34.898372656250004Z" fill-rule="evenodd" fill="#FFFFFF" fill-opacity="1"/></g><g transform="matrix(-0.7071067094802856,0.7071067094802856,-0.7071067094802856,-0.7071067094802856,94.32992537310929,-15.48704014782561)"><path d="M61.4521365234375,13.7928466796875Q63.6143365234375,13.7928466796875,65.4197365234375,14.1275766796875C65.3336365234375,13.394786679687499,65.2145365234375,12.696192679687499,65.0665365234375,12.0420826796875Q63.3796365234375,11.7928466796875,61.4521365234375,11.7928466796875Q57.0802365234375,11.7928466796875,53.9458765234375,13.0750966796875Q52.2755765234375,13.7583966796875,51.3612805234375,14.703196679687501Q50.3721561434375,15.725306679687499,50.3721561434375,16.9165066796875Q50.3721561434375,18.1077066796875,51.3612805234375,19.1298166796875Q52.2755765234375,20.0746066796875,53.9458765234375,20.7579166796875Q54.8608465234375,21.1322266796875,55.8812665234375,21.397266679687498Q55.6889065234375,20.359426679687502,55.5932665234375,19.2316666796875Q55.1336165234375,19.0829266796875,54.703146523437496,18.906826679687498Q53.4210865234375,18.382336679687498,52.7984965234375,17.7389866796875Q52.372156523437496,17.298426679687502,52.372156523437496,16.9165066796875Q52.372156523437496,16.5345766796875,52.7984965234375,16.0940266796875Q53.4210865234375,15.450666679687501,54.703146523437496,14.9261866796875Q57.4735065234375,13.7928466796875,61.4521365234375,13.7928466796875ZM57.4918065234375,19.7067766796875C57.5780765234375,20.439566679687502,57.6974465234375,21.1381066796875,57.845696523437496,21.7920966796875Q59.5292065234375,22.0401466796875,61.4521365234375,22.0401466796875Q65.8240365234375,22.0401466796875,68.9583365234375,20.7579166796875Q70.6286365234375,20.0746066796875,71.5429365234375,19.1298166796875Q72.5321365234375,18.1077066796875,72.5321365234375,16.9165066796875Q72.5321365234375,15.725306679687499,71.5429365234375,14.703196679687501Q70.6286365234375,13.7583966796875,68.9583365234375,13.0750966796875Q68.0469365234375,12.7022246796875,67.0308365234375,12.4377846796875Q67.22283652343751,13.4757566796875,67.3180365234375,14.6036366796875Q67.7739365234375,14.751436679687501,68.2011365234375,14.9261866796875Q69.48313652343751,15.450666679687501,70.1057365234375,16.0940266796875Q70.5321365234375,16.5345766796875,70.5321365234375,16.9165066796875Q70.5321365234375,17.298426679687502,70.1057365234375,17.7389866796875Q69.48313652343751,18.382336679687498,68.2011365234375,18.906826679687498Q65.4307365234375,20.0401566796875,61.4521365234375,20.0401566796875Q59.2942565234375,20.0401566796875,57.4918065234375,19.7067766796875Z" fill-rule="evenodd" fill="#FFFFFF" fill-opacity="1"/></g><g transform="matrix(0.7071067690849304,-0.7071067690849304,0.7071067690849304,0.7071067690849304,-1.7907198921020608,27.72296070829907)"><path d="M32.5692138671875,16.0230712890625C32.5692138671875,17.2933212890625,34.5839338671875,18.3230712890625,37.0692138671875,18.3230712890625C39.5544938671875,18.3230712890625,41.5692138671875,17.2933212890625,41.5692138671875,16.0230712890625L32.5692138671875,16.0230712890625Z" fill="#FFFFFF" fill-opacity="1"/></g><g transform="matrix(-0.7071068286895752,0.7071067094802856,-0.7071067094802856,-0.7071068286895752,88.55518236551143,-4.720548056080588)"><path d="M45.2552490234375,15.9801025390625C45.2552490234375,17.2503525390625,47.2699690234375,18.2801025390625,49.7552490234375,18.2801025390625C52.2405290234375,18.2801025390625,54.2552490234375,17.2503525390625,54.2552490234375,15.9801025390625L45.2552490234375,15.9801025390625Z" fill="#FFFFFF" fill-opacity="1"/></g><g transform="matrix(0.7071067690849304,0.7071067690849304,-0.7071067690849304,0.7071067690849304,18.220960865486944,-24.670982476446028)"><path d="M38.8909912109375,9.659153461456299C38.8909912109375,10.9294034614563,40.9057112109375,11.9591534614563,43.3909912109375,11.9591534614563C45.8762712109375,11.9591534614563,47.8909912109375,10.9294034614563,47.8909912109375,9.659153461456299L38.8909912109375,9.659153461456299Z" fill="#FFFFFF" fill-opacity="1"/></g><g transform="matrix(-0.7071067690849304,-0.7071067690849304,0.7071067690849304,-0.7071067690849304,50.66406024066964,65.67592576502648)"><path d="M38.9339599609375,22.3450927734375C38.9339599609375,23.6153427734375,40.9486799609375,24.6450927734375,43.4339599609375,24.6450927734375C45.9192399609375,24.6450927734375,47.9339599609375,23.6153427734375,47.9339599609375,22.3450927734375L38.9339599609375,22.3450927734375Z" fill="#FFFFFF" fill-opacity="1"/></g></g></g></svg>