<svg xmlns="http://www.w3.org/2000/svg" xmlns:xlink="http://www.w3.org/1999/xlink" fill="none" version="1.1" width="32" height="32" viewBox="0 0 32 32"><defs><clipPath id="master_svg0_2462_1784"><rect x="0" y="0" width="32" height="32" rx="0"/></clipPath></defs><g><g clip-path="url(#master_svg0_2462_1784)"><g><rect x="0" y="0" width="32" height="32" rx="16" fill="#33D383" fill-opacity="1"/></g><g><path d="M22.2326,11.52862L22.2326,13.79939C22.2326,13.92174,22.1334,14.0209,22.0111,14.0209L19.740299999999998,14.0209C19.618000000000002,14.0209,19.5188,13.92174,19.5188,13.79939L19.5188,13.70892L16.5206,15.7895L16.5206,16.2105L19.5188,18.2911L19.5188,18.2006C19.5188,18.0783,19.618000000000002,17.979100000000003,19.740299999999998,17.979100000000003L22.0111,17.979100000000003C22.1334,17.979100000000003,22.2326,18.0783,22.2326,18.2006L22.2326,20.4714C22.2326,20.5937,22.1334,20.6929,22.0111,20.6929L19.740299999999998,20.6929C19.618000000000002,20.6929,19.5188,20.5937,19.5188,20.4714L19.5188,20.3754L16.5206,22.4357L16.5206,23.8074C16.5206,23.9297,16.4214,24.0289,16.2991,24.0289L14.0302,24.0289C13.9078,24.0289,13.80862,23.9297,13.80862,23.8074L13.80862,21.5385C13.80861,21.4164,13.9081,21.3177,14.0302,21.3188L16.2991,21.3188C16.4211,21.3177,16.5206,21.4164,16.5206,21.5385L16.5206,21.6455L19.5188,19.5815L19.5188,19.0868L16.5206,17.0062L16.5206,17.1354C16.5206,17.2577,16.4214,17.3569,16.2991,17.3569L14.0302,17.3569C13.9078,17.3569,13.80862,17.2577,13.80862,17.1354L13.80862,14.8646C13.80862,14.7423,13.9078,14.6431,14.0302,14.6431L16.2991,14.6431C16.4214,14.6431,16.5206,14.7423,16.5206,14.8646L16.5206,14.9938L19.5188,12.91323L19.5188,12.40739L16.5206,10.297229999999999L16.5206,10.46154C16.5206,10.58389,16.4214,10.68308,16.2991,10.68308L14.0302,10.68308C13.9078,10.68308,13.80862,10.58389,13.80862,10.46154L13.80862,8.19262C13.80862,8.070260000000001,13.9078,7.971080000000001,14.0302,7.971080000000001L16.2991,7.971080000000001C16.4214,7.971080000000001,16.5206,8.070260000000001,16.5206,8.19262L16.5206,9.499690000000001L19.5188,11.608L19.5188,11.52862C19.5188,11.40626,19.618000000000002,11.30708,19.740299999999998,11.30708L22.0111,11.30708C22.1334,11.30708,22.2326,11.40626,22.2326,11.52862ZM11.89416,10.31385L11.15569,10.31385C11.05373,10.31385,10.97108,10.3965,10.97108,10.49846L10.97108,14.0911C10.97108,14.193,11.05373,14.2757,11.15569,14.2757L11.89416,14.2757C11.99611,14.2757,12.07877,14.193,12.07877,14.0911L12.07877,10.494769999999999C12.07685,10.396370000000001,11.99807,10.31678,11.89969,10.31385L11.89416,10.31385ZM11.89416,17.728L11.15569,17.728C11.05373,17.728,10.97108,17.8107,10.97108,17.912599999999998L10.97108,21.5089C10.97108,21.6109,11.05373,21.6935,11.15569,21.6935L11.89416,21.6935C11.99611,21.6935,12.07877,21.6109,12.07877,21.5089L12.07877,17.9089C12.07685,17.810499999999998,11.99807,17.7309,11.89969,17.728L11.89416,17.728ZM28,16C28,22.6274,22.6274,28,16,28C9.37258,28,4,22.6274,4,16C4,9.37258,9.37258,4,16,4C22.624,4.00813921,27.9919,9.37596,28,16ZM27.1582,16C27.1582,9.83752,22.1625,4.841846,16,4.841846C9.83752,4.841846,4.841846,9.83752,4.841846,16C4.841846,22.1625,9.83752,27.1582,16,27.1582C22.1599,27.152,27.152,22.1599,27.1582,16Z" fill="#FFFFFF" fill-opacity="1"/></g></g></g></svg>