<svg xmlns="http://www.w3.org/2000/svg" xmlns:xlink="http://www.w3.org/1999/xlink" fill="none" version="1.1" width="32" height="32" viewBox="0 0 32 32"><g><g><ellipse cx="16" cy="16" rx="16" ry="16" fill="#4743FF" fill-opacity="1"/></g><g><path d="M6.481696624243164,12.795913077513164L7.291060724243164,12.795913077513164C9.543441724243165,12.792210654243164,11.371331724243163,14.617097974243164,11.371331724243163,16.869487974243164L11.371331724243163,25.137007974243165L10.521831724243164,25.137007974243165C8.272051724243164,25.137007974243165,6.448251724243164,23.313207974243163,6.448251724243164,21.063477974243163L6.448251724243164,12.829358674243164L6.481696624243164,12.795913077513164Z" fill="#FFFFFF" fill-opacity="1"/></g><g><path d="M20.635517120361328,12.795907974243164L21.33785812036133,12.795907974243164C23.661517120361328,12.795906698423163,25.54521712036133,14.679607974243163,25.54521712036133,17.003267974243165L25.54521712036133,21.324337974243164C25.54521712036133,23.452207974243166,23.820237120361327,25.177207974243164,21.69237712036133,25.177207974243164L20.635517120361328,25.177207974243164L20.635517120361328,12.795907974243164Z" fill="#FFFFFF" fill-opacity="1"/></g><g transform="matrix(-1,-1.2246468525851679e-16,1.2246468525851679e-16,-1,36.9232063293457,50.340980529785156)"><path d="M22.54187316467285,25.170490264892578L23.34454316467285,25.170490264892578C23.366713164672852,25.17049090280158,23.38468316467285,25.18845956489258,23.38468316467285,25.210624364892578L23.38468316467285,39.44469026489258C23.38468316467285,41.69449026489258,21.560873164672852,43.51829026489258,19.311102164672853,43.51829026489258L18.50173656467285,43.51829026489258C18.47957176467285,43.51829026489258,18.46160316467285,43.50039026489257,18.46160316467285,43.478190264892575L18.46160316467285,29.244070264892578C18.46160316467285,26.994290264892577,20.28540316467285,25.17049090280158,22.53518316467285,25.17049090280158L22.54187316467285,25.170490264892578Z" fill="#FFFFFF" fill-opacity="1"/></g></g></svg>