<svg xmlns="http://www.w3.org/2000/svg" xmlns:xlink="http://www.w3.org/1999/xlink" fill="none" version="1.1" width="32" height="32" viewBox="0 0 32 32"><defs><mask id="master_svg0_3070_03555"><g><path d="M22.164788859558104,2.129186153411849L22.165188859558107,11.706666153411865C21.388388859558106,11.491416153411866,20.569888859558105,11.376396153411866,19.724588859558104,11.376396153411866C14.688408859558105,11.376396153411866,10.605798859558107,15.458986153411866,10.605798859558107,20.495186153411865C10.605798859558107,23.493986153411864,12.053358859558106,26.154686153411866,14.287838859558105,27.816686153411865L5.2115888595580255,27.815886153411864L5.2115888595580255,2.129186153411849L22.164788859558104,2.129186153411849Z" fill="#FFFFFF" fill-opacity="1"/></g></mask><linearGradient x1="0.5" y1="0" x2="0.5" y2="1" id="master_svg1_3070_10439"><stop offset="0%" stop-color="#96CAFF" stop-opacity="1"/><stop offset="100%" stop-color="#0052FE" stop-opacity="1"/></linearGradient><mask id="master_svg2_3070_03561"><g><path d="M13.229588859558106,2.1736486442387104C13.318778859558105,4.54354864423871,11.524968859558106,7.99621864423871,7.8481788595581055,12.531648644238711C1.7370988595581056,20.38954864423871,7.349688859558105,27.77794864423871,13.522608859558105,27.77794864423871C19.695588859558107,27.77794864423871,25.321688859558105,21.23204864423871,20.049188859558107,13.373048644238711C18.685288859558106,11.13903864423871,15.701788859558105,7.72306864423871,15.308288859558106,6.4916586442387105C13.920608859558106,9.16454864423871,14.476518859558105,11.78205864423871,13.522608859558105,13.966848644238711C12.677688859558106,16.19224864423871,16.312288859558105,19.40964864423871,13.676808859558106,19.230948644238712C11.664558859558106,18.91774864423871,11.745518859558105,16.406148644238712,11.914678859558105,15.81674864423871C13.838708859558105,9.153738644238711,14.277018859558105,4.60604864423871,13.229588859558106,2.1736486442387104Z" fill="#FFFFFF" fill-opacity="1"/></g></mask><linearGradient x1="0.5188465714454651" y1="0.13014265894889832" x2="0.5116596817970276" y2="0.8619276881217957" id="master_svg3_3070_10440"><stop offset="0%" stop-color="#96CAFF" stop-opacity="1"/><stop offset="100%" stop-color="#0300CC" stop-opacity="1"/></linearGradient><mask id="master_svg4_3070_03566"><g><path d="M13.229588859558106,2.1736486442387104C13.318778859558105,4.54354864423871,11.524968859558106,7.99621864423871,7.8481788595581055,12.531648644238711C1.7370988595581056,20.38954864423871,7.349688859558105,27.77794864423871,13.522608859558105,27.77794864423871C19.695588859558107,27.77794864423871,25.321688859558105,21.23204864423871,20.049188859558107,13.373048644238711C18.685288859558106,11.13903864423871,15.701788859558105,7.72306864423871,15.308288859558106,6.4916586442387105C13.920608859558106,9.16454864423871,14.476518859558105,11.78205864423871,13.522608859558105,13.966848644238711C12.677688859558106,16.19224864423871,16.312288859558105,19.40964864423871,13.676808859558106,19.230948644238712C11.664558859558106,18.91774864423871,11.745518859558105,16.406148644238712,11.914678859558105,15.81674864423871C13.838708859558105,9.153738644238711,14.277018859558105,4.60604864423871,13.229588859558106,2.1736486442387104Z" fill="#FFFFFF" fill-opacity="1"/></g></mask><linearGradient x1="0.5" y1="0.31835800409317017" x2="0.5" y2="1" id="master_svg5_3070_10441"><stop offset="0%" stop-color="#7FA9FF" stop-opacity="1"/><stop offset="100%" stop-color="#021580" stop-opacity="1"/></linearGradient><mask id="master_svg6_3070_03571"><g><path d="M13.229588859558106,2.1736486442387104C13.318778859558105,4.54354864423871,11.524968859558106,7.99621864423871,7.8481788595581055,12.531648644238711C1.7370988595581056,20.38954864423871,7.349688859558105,27.77794864423871,13.522608859558105,27.77794864423871C19.695588859558107,27.77794864423871,25.321688859558105,21.23204864423871,20.049188859558107,13.373048644238711C18.685288859558106,11.13903864423871,15.701788859558105,7.72306864423871,15.308288859558106,6.4916586442387105C13.920608859558106,9.16454864423871,14.476518859558105,11.78205864423871,13.522608859558105,13.966848644238711C12.677688859558106,16.19224864423871,16.312288859558105,19.40964864423871,13.676808859558106,19.230948644238712C11.664558859558106,18.91774864423871,11.745518859558105,16.406148644238712,11.914678859558105,15.81674864423871C13.838708859558105,9.153738644238711,14.277018859558105,4.60604864423871,13.229588859558106,2.1736486442387104Z" fill="#FFFFFF" fill-opacity="1"/></g></mask><linearGradient x1="0.5" y1="0" x2="0.5" y2="1" id="master_svg7_3070_10442"><stop offset="0%" stop-color="#96CAFF" stop-opacity="1"/><stop offset="100%" stop-color="#0022E6" stop-opacity="1"/></linearGradient></defs><g><g><g><rect x="0" y="0" width="32" height="32" rx="16" fill="#FFFFFF" fill-opacity="1"/></g><g><g><g></g><g mask="url(#master_svg0_3070_03555)"><g><g><path d="M13.229588859558106,2.1736486442387104C13.318778859558105,4.54354864423871,11.524968859558106,7.99621864423871,7.8481788595581055,12.531648644238711C1.7370988595581056,20.38954864423871,7.349688859558105,27.77794864423871,13.522608859558105,27.77794864423871C19.695588859558107,27.77794864423871,25.321688859558105,21.23204864423871,20.049188859558107,13.373048644238711C18.685288859558106,11.13903864423871,15.701788859558105,7.72306864423871,15.308288859558106,6.4916586442387105C13.920608859558106,9.16454864423871,14.476518859558105,11.78205864423871,13.522608859558105,13.966848644238711C12.677688859558106,16.19224864423871,16.312288859558105,19.40964864423871,13.676808859558106,19.230948644238712C11.664558859558106,18.91774864423871,11.745518859558105,16.406148644238712,11.914678859558105,15.81674864423871C13.838708859558105,9.153738644238711,14.277018859558105,4.60604864423871,13.229588859558106,2.1736486442387104Z" fill-rule="evenodd" fill="url(#master_svg1_3070_10439)" fill-opacity="1"/></g><g mask="url(#master_svg2_3070_03561)"><g><path d="M10.01566450654602,14.964334682904482C7.772968506546021,19.890254682904484,10.01566450654602,26.38715468290448,13.52261850654602,27.777954682904483C17.02955850654602,29.16865468290448,27.66319850654602,23.47365468290448,20.04919850654602,13.373094682904481C18.68526850654602,11.139044682904482,15.70179850654602,7.723064682904482,15.30828850654602,6.491654682904482C14.76422850654602,7.111220682904482,13.972288506546022,10.205784682904483,14.845318506546022,13.373094682904481C15.718348506546022,16.540354682904482,16.31228850654602,19.40965468290448,13.67680850654602,19.230954682904482C11.66455850654602,18.91775468290448,11.74551850654602,16.406164682904482,11.914678506546021,15.816704682904481C14.80072850654602,5.822252682904482,15.530848506546022,8.161164682904483,10.01566450654602,14.964334682904482Z" fill-rule="evenodd" fill="url(#master_svg3_3070_10440)" fill-opacity="1"/></g></g><g mask="url(#master_svg4_3070_03566)"><g><path d="M15.572202357330323,5.928464974199648C14.818972357330322,7.224985104199648,14.966862357330323,9.290905104199648,16.01586235733032,12.126245104199647C17.589352357330323,16.379245104199647,20.49840235733032,21.76294510419965,15.572202357330323,23.81914510419965C12.519612357330322,24.880345104199648,9.211512357330323,21.40434510419965,11.444160357330322,13.562925104199648C12.932592357330321,8.335335104199647,14.308602357330322,5.7905171041996475,15.572202357330323,5.928464974199648Z" fill-rule="evenodd" fill="url(#master_svg5_3070_10441)" fill-opacity="1"/></g></g><g mask="url(#master_svg6_3070_03571)"><g><path d="M13.178594362487793,1.874806720763445C13.302844362487793,5.703586720763445,12.423264362487792,9.251736720763445,10.539844362487793,12.519306720763446C7.714716362487793,17.420506720763445,4.314424362487793,25.076806720763447,11.353734362487792,27.487006720763446C16.046614362487794,29.093806720763446,18.424454362487793,28.691006720763443,18.487154362487793,26.278806720763445C15.086414362487794,27.851106720763443,12.708614362487793,26.845306720763446,11.353734362487792,23.261506720763446C10.578494362487794,21.468906720763446,11.650644362487792,16.330006720763443,11.914674362487794,15.816706720763445C12.090694362487792,15.474506720763445,13.041384362487793,11.801646720763445,14.766754362487793,4.798126720763445L13.178594362487793,1.874806720763445Z" fill-rule="evenodd" fill="url(#master_svg7_3070_10442)" fill-opacity="1"/></g></g></g></g></g><g><g><path d="M27.04275099334717,20.64047475692749C27.049550993347168,24.68980475692749,23.744850993347168,28.11080475692749,19.52070099334717,28.07250475692749C15.377640993347168,28.033504756927492,12.055934393347169,24.61370475692749,12.149062433347169,20.44612475692749C12.238042293347167,16.45240475692749,15.535270993347169,13.09564665692749,19.750100993347168,13.175915196927491C23.810850993347167,13.253279956927491,27.061950993347168,16.58473475692749,27.04275099334717,20.64047475692749Z" fill="#3E79FE" fill-opacity="1"/></g><g><path d="M19.991517908706665,19.408452466659547L21.646307908706664,19.649642466659547C21.740917908706663,19.663322466659547,21.835527908706666,19.678992466659544,21.930537908706665,19.689312466659544C21.981707908706664,19.694862466659547,21.988247908706665,19.713902466659547,21.974767908706667,19.760512466659545C21.935097908706666,19.896772466659545,21.897607908706664,20.033632466659547,21.867067908706666,20.172082466659546C21.851787908706665,20.241702466659547,21.817277908706664,20.251422466659545,21.755597908706665,20.241892466659547C21.347997908706667,20.177832466659545,20.940397908706665,20.116142466659547,20.532597908706666,20.053672466659545C20.349927908706665,20.025702466659546,20.167057908706667,19.998922466659547,19.984577908706665,19.969962466659545C19.934597908706664,19.962032466659547,19.909007908706666,19.968972466659544,19.898297908706667,20.029472466659545C19.838797908706667,20.366652466659545,19.772937908706666,20.703842466659545,19.707087908706665,21.041022466659545C19.694597908706665,21.105292466659545,19.716807908706663,21.128302466659548,19.779487908706663,21.136822466659545C20.410617908706666,21.222712466659544,21.041157908706666,21.311372466659545,21.672287908706664,21.397452466659544C21.741507908706666,21.406972466659546,21.780787908706664,21.417282466659547,21.750237908706666,21.505352466659545C21.707197908706664,21.629712466659548,21.679227908706665,21.759432466659547,21.646897908706663,21.887362466659546C21.633417908706665,21.940712466659548,21.620127908706664,21.966702466659548,21.548917908706663,21.956782466659547C20.919177908706665,21.863362466659545,20.288047908706666,21.778272466659544,19.658097908706665,21.685252466659545C19.589667908706666,21.675132466659548,19.575987908706665,21.697152466659546,19.558927908706664,21.753872466659544C19.453607908706665,22.117042466659548,19.394697908706664,22.493902466659545,19.269547908706667,22.852502466659544C19.066047908706665,23.431272466659546,18.869287908706664,24.013412466659545,18.608457908706665,24.569572466659544C18.232597908706666,25.370882466659545,17.596907908706665,25.783042466659545,16.709512908706664,25.787822466659545C16.408029908706666,25.789392466659546,16.129156908706666,25.70430246665955,15.893721908706665,25.505562466659548C15.685658808706664,25.330222466659546,15.659675808706664,25.100342466659548,15.816962908706666,24.881772466659548C15.865557908706664,24.814532466659546,15.925258908706665,24.781402466659546,16.010348908706664,24.786762466659546C16.165057908706665,24.796282466659548,16.301914908706664,24.834762466659548,16.389582908706664,24.977372466659546C16.434408908706665,25.050362466659546,16.488755908706665,25.117992466659544,16.531597908706665,25.191982466659546C16.723197908706666,25.520242466659546,17.069907908706664,25.586092466659544,17.360877908706666,25.340732466659546C17.582427908706666,25.153502466659546,17.728807908706663,24.910532466659546,17.840667908706664,24.646532466659544C17.987837908706666,24.298042466659545,18.053887908706663,23.926142466659545,18.147507908706665,23.562382466659546C18.304397908706665,22.952272466659544,18.453557908706664,22.340382466659545,18.581687908706666,21.723332466659546C18.584267908706664,21.710442466659547,18.589227908706665,21.697942466659548,18.591207908706664,21.684852466659546C18.614417908706663,21.546012466659548,18.604887908706665,21.531332466659546,18.464267908706667,21.509912466659546C17.900967908706665,21.423832466659547,17.335887908706667,21.337352466659546,16.770407908706666,21.255242466659546C16.685314908706665,21.242742466659546,16.654571908706664,21.214572466659547,16.671232908706664,21.125922466659546C16.695033908706666,21.006912466659546,16.709710908706665,20.884732466659546,16.722607908706664,20.763542466659544C16.729147908706665,20.703052466659546,16.740257908706663,20.682622466659545,16.812057908706667,20.693522466659545C17.428707908706667,20.786352466659544,18.046357908706664,20.872032466659547,18.663407908706667,20.962882466659547C18.719137908706664,20.971012466659545,18.742737908706665,20.966252466659547,18.756027908706663,20.902382466659546C18.824067908706667,20.579672466659545,18.894867908706665,20.257562466659547,18.974207908706664,19.937632466659544C18.994047908706666,19.856712466659545,18.967067908706664,19.843822466659546,18.901417908706666,19.833902466659545C18.549157908706665,19.780352466659547,18.197297908706666,19.724612466659547,17.845427908706665,19.669082466659546C17.558627908706665,19.623852466659546,17.272217908706665,19.576842466659546,16.985207908706666,19.533412466659545C16.938207908706666,19.526272466659545,16.914007908706665,19.517942466659544,16.922537908706666,19.461212466659546C16.945147908706666,19.307892466659546,16.963587908706664,19.153782466659546,16.979857908706666,18.999462466659544C16.985207908706666,18.949482466659546,17.001077908706666,18.931832466659547,17.053637908706666,18.939962466659544C17.697467908706663,19.029222466659547,18.341687908706664,19.115892466659545,18.985517908706665,19.205352466659548C19.141017908706665,19.226972466659547,19.138037908706664,19.229942466659544,19.186237908706666,19.077412466659545C19.350267908706666,18.558942466659545,19.472247908706663,18.026192466659545,19.684877908706664,17.523982466659547C19.915157908706664,16.979922466659545,20.228537908706663,16.490607466659547,20.721427908706666,16.150447466659546C21.246047908706664,15.788269866659546,21.818867908706665,15.725791466659546,22.414697908706664,15.967970466659546C22.564437908706665,16.028861466659546,22.678297908706664,16.143306466659546,22.776477908706667,16.269453466659545C22.916697908706666,16.449947466659545,22.798887908706664,16.834342466659546,22.590827908706665,16.882732466659547C22.474397908706663,16.909912466659545,22.375217908706666,16.866472466659545,22.288147908706666,16.795661466659546C22.149307908706664,16.682208466659546,22.043787908706665,16.536028466659545,21.928747908706665,16.400559466659544C21.695097908706664,16.125257466659544,21.394807908706664,16.104431466659545,21.141127908706665,16.361882466659544C20.899147908706666,16.607432466659546,20.712307908706663,16.888092466659547,20.615907908706667,17.223492466659547C20.411607908706664,17.933562466659545,20.206657908706667,18.643442466659547,20.001037908706664,19.353112466659546C19.999257908706664,19.367992466659544,19.996677908706666,19.384452466659546,19.991517908706665,19.408452466659547Z" fill="#FEFEFE" fill-opacity="1"/></g></g></g></g></g></svg>