<svg xmlns="http://www.w3.org/2000/svg" xmlns:xlink="http://www.w3.org/1999/xlink" fill="none" version="1.1" width="32" height="31.999755859375" viewBox="0 0 32 31.999755859375"><defs><mask id="master_svg0_1_007487"><g><path d="M0,5.684341886080802e-14L32,5.684341886080802e-14L32,31.999800000000057L0,31.999800000000057L0,5.684341886080802e-14Z" fill-rule="evenodd" fill="#FFFFFF" fill-opacity="1"/></g></mask></defs><g><g><g><g></g><g mask="url(#master_svg0_1_007487)"><g><path d="M32,15.999800000005052C32,24.836800000005052,24.837,31.999800000005052,16,31.999800000005052C7.163,31.999800000005052,0,24.836800000005052,0,15.999800000005052C0,7.162800000005053,7.163,-0.00019999999494757503,16,-0.00019999999494757503C24.837,-0.00019999999494757503,32,7.162800000005053,32,15.999800000005052L32,15.999800000005052Z" fill-rule="evenodd" fill="#006CBE" fill-opacity="1"/></g></g></g><g><path d="M16.106701099243164,20.234699523925784C16.673701099243164,20.234699523925784,17.134701099243163,20.17269952392578,17.489701099243163,20.04769952392578C18.161701099243164,19.80769952392578,18.497701099243166,19.362699523925784,18.497701099243166,18.71169952392578C18.497701099243166,18.33169952392578,18.330701099243164,18.036699523925783,17.997701099243166,17.82869952392578C17.663701099243163,17.625699523925782,17.140701099243163,17.445699523925782,16.426701099243164,17.289699523925783L15.208701099243164,17.015699523925782C14.009701099243165,16.74569952392578,13.181701099243163,16.45069952392578,12.723701099243165,16.13269952392578C11.947700099243164,15.601699523925781,11.559700099243164,14.771699523925781,11.559700099243164,13.64069952392578C11.559700099243164,12.609699523925782,11.934700099243164,11.753699523925782,12.684701099243163,11.070699523925782C13.434701099243163,10.388699523925782,14.536701099243164,10.046699523925781,15.989701099243163,10.046699523925781C17.202701099243164,10.046699523925781,18.237701099243164,10.36869952392578,19.094701099243164,11.011699523925781C19.765701099243167,11.516699523925782,20.186701099243166,12.198699523925782,20.357701099243165,13.059699523925781C20.435701099243165,13.446699523925782,20.131701099243166,13.812699523925781,19.735701099243165,13.812699523925781L18.656701099243165,13.812699523925781C18.388701099243164,13.812699523925781,18.131701099243166,13.64769952392578,18.065701099243164,13.388699523925782C17.943701099243164,12.915699523925781,17.663701099243163,12.564699523925782,17.223701099243165,12.33669952392578C16.848701099243165,12.14369952392578,16.382701099243164,12.046699523925781,15.825701099243165,12.046699523925781C15.205701099243164,12.046699523925781,14.710701099243163,12.171699523925781,14.340701099243164,12.42269952392578C13.970701099243165,12.67269952392578,13.786701099243164,13.021699523925781,13.786701099243164,13.468699523925782C13.786701099243164,13.88069952392578,13.968701099243164,14.187699523925781,14.333701099243164,14.390699523925782C14.567701099243164,14.526699523925782,15.067701099243164,14.68569952392578,15.833701099243164,14.867699523925781L17.817701099243166,15.343699523925782C18.687701099243164,15.552699523925781,19.343701099243162,15.831699523925781,19.786701099243164,16.17969952392578C20.473701099243165,16.721699523925782,20.817701099243166,17.50569952392578,20.817701099243166,18.53169952392578C20.817701099243166,19.58369952392578,20.415701099243165,20.457699523925783,19.610701099243165,21.152699523925783C18.805701099243166,21.847699523925783,17.668701099243165,22.195699523925782,16.200701099243165,22.195699523925782C14.700701099243163,22.195699523925782,13.520701099243164,21.853699523925783,12.661701099243164,21.16869952392578C11.986700099243164,20.63069952392578,11.576700099243164,19.93469952392578,11.431700319243165,19.08069952392578C11.366700299243163,18.69769952392578,11.668700099243164,18.343699523925782,12.057700099243164,18.343699523925782L13.158701099243164,18.343699523925782C13.436701099243164,18.343699523925782,13.687701099243164,18.529699523925782,13.758701099243165,18.79969952392578C13.838701099243163,19.103699523925783,13.951701099243165,19.344699523925783,14.098701099243165,19.52369952392578C14.489701099243163,19.99769952392578,15.158701099243164,20.234699523925784,16.106701099243164,20.234699523925784L16.106701099243164,20.234699523925784Z" fill-rule="evenodd" fill="#FFFFFF" fill-opacity="1"/></g><g><path d="M12.225909777984619,6.499385966430664Q12.295279777984618,6.471794966430664,12.35977977798462,6.4342099664306645Q12.42426977798462,6.3966249664306645,12.482479777984619,6.349879966430664Q12.540679777984618,6.303134966430664,12.59129977798462,6.248265966430664Q12.641919777984619,6.193397966430664,12.68382977798462,6.131621966430664Q12.725739777984618,6.069845966430664,12.758009777984618,6.002531966430664Q12.790289777984619,5.935217966430664,12.81220977798462,5.863857966430664Q12.83412977798462,5.792497966430664,12.84521977798462,5.718674966430664Q12.856299777984619,5.644851066430664,12.856299777984619,5.570199966430664Q12.856299777984619,5.471708566430664,12.83707977798462,5.375109966430664Q12.817869777984619,5.278510966430664,12.78017977798462,5.187516966430664Q12.74248977798462,5.0965219664306645,12.68776977798462,5.014629966430664Q12.633049777984619,4.932736966430664,12.563409777984619,4.863092966430664Q12.493759777984618,4.793448966430664,12.41186977798462,4.738729966430664Q12.329979777984619,4.684011966430664,12.23897977798462,4.646320966430664Q12.14798977798462,4.608629966430664,12.05138977798462,4.589414966430664Q11.954789777984619,4.570199966430664,11.856299777984619,4.570199966430664Q11.66470977798462,4.570199966430664,11.486689777984619,4.641013966430664Q8.052779777984618,6.006951966430664,5.944489777984619,9.057959966430664Q3.785299777984619,12.182609966430665,3.785299777984619,15.994199966430664Q3.785299777984619,19.813999966430664,5.953999777984619,22.943399966430665Q8.071439777984619,25.998899966430663,11.516209777984619,27.358999966430662L11.516929777984618,27.359299966430665L11.517119777984618,27.359299966430665Q11.69405977798462,27.429199966430666,11.88429977798462,27.429199966430666Q11.98278977798462,27.429199966430666,12.07938977798462,27.409999966430664Q12.175989777984618,27.390799966430663,12.26697977798462,27.353099966430666Q12.35797977798462,27.315399966430665,12.439869777984619,27.260699966430664Q12.52175977798462,27.205899966430664,12.59140977798462,27.136299966430663Q12.66104977798462,27.066699966430665,12.715769777984619,26.984799966430664Q12.770489777984618,26.902899966430663,12.80817977798462,26.811899966430666Q12.84586977798462,26.720899966430665,12.865079777984619,26.624299966430662Q12.88429977798462,26.527699966430664,12.88429977798462,26.429199966430666Q12.88429977798462,26.354399966430663,12.87316977798462,26.280399966430664Q12.862039777984618,26.206399966430663,12.840019777984619,26.134899966430662Q12.81799977798462,26.063399966430666,12.785589777984619,25.995999966430663Q12.75317977798462,25.928599966430664,12.711099777984618,25.866699966430666Q12.66900977798462,25.804799966430664,12.618189777984618,25.749899966430664Q12.56736977798462,25.694999966430665,12.508949777984618,25.648299966430663Q12.45052977798462,25.601599966430665,12.38579977798462,25.563999966430664Q12.321069777984619,25.526499966430663,12.251479777984619,25.499099966430663L12.25130977798462,25.498999966430663L12.249509777984619,25.498299966430665Q9.36953977798462,24.360799966430665,7.597849777984619,21.804199966430666Q5.785299777984619,19.18869996643066,5.785299777984619,15.994199966430664Q5.785299777984619,12.806409966430664,7.5898597779846195,10.194939966430663Q9.354199777984618,7.641699966430664,12.225909777984619,6.499385966430664Z" fill-rule="evenodd" fill="#FFFFFF" fill-opacity="1"/></g><g><path d="M20.4827815859375,4.640250238037109L20.4827815859375,4.640249238037109Q23.9281805859375,6.00034023803711,26.0459005859375,9.05618023803711Q28.2146005859375,12.185580238037108,28.2146005859375,16.00540023803711Q28.2146005859375,19.81700023803711,26.0554105859375,22.94160023803711Q23.9482105859375,25.99110023803711,20.5167435859375,27.35720023803711Q20.5149855859375,27.35790023803711,20.5132275859375,27.35860023803711Q20.3351985859375,27.42940023803711,20.1436005859375,27.42940023803711Q20.0451091859375,27.42940023803711,19.9485105859375,27.41020023803711Q19.8519115859375,27.39100023803711,19.7609175859375,27.35330023803711Q19.6699225859375,27.31560023803711,19.5880305859375,27.26090023803711Q19.5061375859375,27.20610023803711,19.4364935859375,27.136500238037108Q19.3668495859375,27.06690023803711,19.3121315859375,26.98500023803711Q19.2574125859375,26.90310023803711,19.2197215859375,26.81210023803711Q19.1820305859375,26.72110023803711,19.1628155859375,26.624500238037108Q19.1436005859375,26.52790023803711,19.1436005859375,26.42940023803711Q19.1436005859375,26.35470023803711,19.1546845859375,26.28090023803711Q19.1657685859375,26.20710023803711,19.1876905859375,26.13570023803711Q19.2096125859375,26.06440023803711,19.2418865859375,25.99710023803711Q19.2741615859375,25.92980023803711,19.3160725859375,25.86800023803711Q19.3579835859375,25.80620023803711,19.4086025859375,25.75130023803711Q19.4592215859375,25.69650023803711,19.5174265859375,25.64970023803711Q19.5756305859375,25.603000238037108,19.6401305859375,25.56540023803711Q19.7046305859375,25.52780023803711,19.7739955859375,25.50020023803711L19.7755055859375,25.49960023803711Q22.6461705859375,24.35720023803711,24.4100405859375,21.80470023803711Q26.2146005859375,19.193200238037107,26.2146005859375,16.00540023803711Q26.2146005859375,12.810850238037109,24.402050585937502,10.19537023803711Q22.6302105859375,7.638630238037109,19.7499075859375,6.501136238037109Q19.6801805859375,6.473739238037109,19.6153145859375,6.436260238037109Q19.5504475859375,6.39878123803711,19.4918895859375,6.352055238037109Q19.4333305859375,6.3053292380371095,19.3823875859375,6.250400238037109Q19.3314455859375,6.195470238037109,19.2892555859375,6.13356423803711Q19.2470655859375,6.071657238037109,19.2145705859375,6.004156238037109Q19.1820745859375,5.936655238037109,19.1599995859375,5.8650652380371096Q19.1379245859375,5.793475238037109,19.1267625859375,5.71939623803711Q19.1156005859375,5.645316138037109,19.1156005859375,5.570400238037109Q19.1156005859375,5.471908838037109,19.1348155859375,5.375310238037109Q19.154030585937498,5.2787112380371095,19.1917215859375,5.187717238037109Q19.2294125859375,5.09672223803711,19.2841305859375,5.014830238037109Q19.3388495859375,4.932937238037109,19.4084935859375,4.86329323803711Q19.4781375859375,4.793649238037109,19.5600305859375,4.738930238037109Q19.6419225859375,4.68421223803711,19.7329175859375,4.646521238037109Q19.8239115859375,4.608830238037109,19.9205105859375,4.589615238037109Q20.0171091859375,4.570400238037109,20.1156005859375,4.570400238037109Q20.3058345859375,4.570400238037109,20.4827815859375,4.640250238037109Z" fill-rule="evenodd" fill="#FFFFFF" fill-opacity="1"/></g><g><path d="M14.94260025024414,21.649200439453125Q14.94260025024414,21.550709039453125,14.96181525024414,21.454110439453125Q14.981029250244141,21.357511439453123,15.01872025024414,21.266517439453125Q15.05641225024414,21.175522439453125,15.111130250244141,21.093630439453126Q15.16584925024414,21.011737439453125,15.23549325024414,20.942093439453124Q15.30513725024414,20.872449439453124,15.38703005024414,20.817730439453126Q15.46892265024414,20.763012439453124,15.55991725024414,20.725321439453126Q15.65091125024414,20.687630439453123,15.74751025024414,20.668415439453124Q15.844109250244141,20.649200439453125,15.94260025024414,20.649200439453125Q16.04109125024414,20.649200439453125,16.13769025024414,20.668415439453124Q16.234289250244142,20.687630439453123,16.32528325024414,20.725321439453126Q16.41627825024414,20.763012439453124,16.49817025024414,20.817730439453126Q16.58006025024414,20.872449439453124,16.64971025024414,20.942093439453124Q16.71935025024414,21.011737439453125,16.77407025024414,21.093630439453126Q16.82879025024414,21.175522439453125,16.86648025024414,21.266517439453125Q16.904170250244142,21.357511439453123,16.92339025024414,21.454110439453125Q16.94260025024414,21.550709039453125,16.94260025024414,21.649200439453125L16.94260025024414,23.852200439453124Q16.94260025024414,23.950690439453126,16.92339025024414,24.047290439453125Q16.904170250244142,24.143890439453124,16.86648025024414,24.234880439453125Q16.82879025024414,24.325880439453126,16.77407025024414,24.407770439453124Q16.71935025024414,24.489660439453125,16.64971025024414,24.559310439453125Q16.58006025024414,24.628950439453124,16.49817025024414,24.683670439453124Q16.41627825024414,24.738390439453124,16.32528325024414,24.776080439453125Q16.234289250244142,24.813770439453126,16.13769025024414,24.832990439453127Q16.04109125024414,24.852200439453124,15.94260025024414,24.852200439453124Q15.844109250244141,24.852200439453124,15.74751025024414,24.832980439453124Q15.65091125024414,24.813770439453126,15.55991725024414,24.776080439453125Q15.46892265024414,24.738390439453124,15.38703005024414,24.683670439453124Q15.30513725024414,24.628950439453124,15.23549325024414,24.559310439453125Q15.16584925024414,24.489660439453125,15.111130250244141,24.407770439453124Q15.05641225024414,24.325880439453126,15.018721250244141,24.234880439453125Q14.981029250244141,24.143890439453124,14.96181525024414,24.047290439453125Q14.94260025024414,23.950690439453126,14.94260025024414,23.852200439453124L14.94260025024414,21.649200439453125Z" fill-rule="evenodd" fill="#FFFFFF" fill-opacity="1"/></g><g><path d="M16.94260025024414,8.846400260925293L16.94260025024414,10.592400260925293Q16.94260025024414,10.690890260925293,16.92339025024414,10.787490260925292Q16.904170250244142,10.884090260925293,16.86648025024414,10.975080260925292Q16.82879025024414,11.066080260925293,16.77407025024414,11.147970260925293Q16.71935025024414,11.229860260925292,16.64971025024414,11.299510260925294Q16.58006025024414,11.369150260925293,16.49817025024414,11.423870260925293Q16.41627825024414,11.478590260925293,16.32528325024414,11.516280260925292Q16.234289250244142,11.553970260925293,16.13769025024414,11.573190260925292Q16.04109125024414,11.592400260925293,15.94260025024414,11.592400260925293Q15.844109250244141,11.592400260925293,15.74751025024414,11.573190260925292Q15.65091125024414,11.553970260925293,15.55991725024414,11.516280260925292Q15.46892265024414,11.478590260925293,15.38703005024414,11.423870260925293Q15.30513725024414,11.369150260925293,15.23549325024414,11.299510260925294Q15.16584925024414,11.229860260925292,15.111130250244141,11.147970260925293Q15.05641225024414,11.066080260925293,15.018721250244141,10.975080260925292Q14.981029250244141,10.884090260925293,14.96181525024414,10.787490260925292Q14.94260025024414,10.690890260925293,14.94260025024414,10.592400260925293L14.94260025024414,8.846400260925293Q14.94260025024414,8.747908860925293,14.96181525024414,8.651310260925293Q14.981029250244141,8.554711260925293,15.01872025024414,8.463717260925293Q15.05641225024414,8.372722260925293,15.111130250244141,8.290830260925294Q15.16584925024414,8.208937260925293,15.23549325024414,8.139293260925292Q15.30513725024414,8.069649260925292,15.38703005024414,8.014930260925293Q15.46892265024414,7.960212260925293,15.55991725024414,7.922521260925293Q15.65091125024414,7.884830260925293,15.74751025024414,7.865615260925293Q15.844109250244141,7.846400260925293,15.94260025024414,7.846400260925293Q16.04109125024414,7.846400260925293,16.13769025024414,7.865615260925293Q16.234289250244142,7.884830260925293,16.32528325024414,7.922521260925293Q16.41627825024414,7.960212260925293,16.49817025024414,8.014930260925293Q16.58006025024414,8.069649260925292,16.64971025024414,8.139293260925292Q16.71935025024414,8.208937260925293,16.77407025024414,8.290830260925294Q16.82879025024414,8.372722260925293,16.86648025024414,8.463717260925293Q16.904170250244142,8.554711260925293,16.92339025024414,8.651310260925293Q16.94260025024414,8.747908860925293,16.94260025024414,8.846400260925293Z" fill-rule="evenodd" fill="#FFFFFF" fill-opacity="1"/></g></g></g></svg>