<svg xmlns="http://www.w3.org/2000/svg" xmlns:xlink="http://www.w3.org/1999/xlink" fill="none" version="1.1" width="32" height="32" viewBox="0 0 32 32"><defs><mask id="master_svg0_1_007693"><g><path d="M0,0L32,0L32,32L0,32L0,0Z" fill-rule="evenodd" fill="#FFFFFF" fill-opacity="1"/></g></mask></defs><g><g><g></g><g mask="url(#master_svg0_1_007693)"><g><path d="M15.999969639083044,0C24.835769639083043,0,31.999969639083048,7.16377,31.999969639083048,16.0001C31.999969639083048,24.8364,24.835769639083043,32.0001,15.999969639083044,32.0001C7.164509639083045,32.0001,-0.00013036091695539653,24.8381,-0.00013036091695539653,16.0001C-0.00013036091695539653,7.16203,7.163199639083045,0,15.999969639083044,0L15.999969639083044,0Z" fill-rule="evenodd" fill="#53AE94" fill-opacity="1"/></g></g></g><g><path d="M17.974580209350584,11.488098778381348L17.974580209350584,13.868058778381346L17.975880209350585,13.868928778381347C22.392080209350585,14.072718778381347,25.711980209350585,14.948308778381348,25.711980209350585,15.996848778381347C25.711980209350585,17.045388778381348,22.392080209350585,17.920958778381348,17.975880209350585,18.12475877838135L17.975880209350585,25.74955877838135L14.039870209350585,25.74955877838135L14.039870209350585,18.125258778381347C9.617590209350587,17.920958778381348,6.289480209350586,17.044518778381345,6.289480209350586,15.995108778381347C6.289480209350586,14.945708778381348,9.615860209350586,14.069248778381347,14.039870209350585,13.866318778381348L14.039870209350585,11.488098778381348L8.596430209350586,11.488098778381348L8.596430209350586,7.861458778381348L23.417580209350586,7.861458778381348L23.417580209350586,11.488098778381348L17.974580209350584,11.488098778381348ZM17.975780209350585,17.477258778381348L17.975780209350585,17.478998778381346L17.976580209350587,17.477258778381348C21.876180209350586,17.303448778381348,24.787980209350586,16.622088778381347,24.787980209350586,15.810378778381349C24.787980209350586,14.998658778381348,21.877480209350587,14.317748778381347,17.976580209350587,14.143928778381348L17.976580209350587,16.80155877838135C17.864480209350585,16.811548778381347,17.254380209350586,16.862388778381348,16.040320209350586,16.862388778381348C15.030020209350585,16.862388778381348,14.297820209350586,16.818938778381348,14.041880209350586,16.80155877838135L14.041880209350586,14.143928778381348C10.133660209350586,14.317308778381348,7.215750209350586,14.996928778381347,7.215750209350586,15.811678778381347C7.215750209350586,16.625998778381348,10.133230209350586,17.306488778381347,14.041880209350586,17.479428778381347L14.041880209350586,17.47638877838135C14.293480209350585,17.489428778381345,15.008290209350585,17.518108778381347,16.023800209350586,17.518108778381347C17.294380209350585,17.518108778381347,17.864980209350584,17.484208778381348,17.975780209350585,17.477258778381348Z" fill-rule="evenodd" fill="#FFFFFF" fill-opacity="1"/></g></g></svg>