<svg xmlns="http://www.w3.org/2000/svg" xmlns:xlink="http://www.w3.org/1999/xlink" fill="none" version="1.1" width="32" height="32" viewBox="0 0 32 32"><g><g><ellipse cx="16" cy="16" rx="16" ry="16" fill="#A484EE" fill-opacity="1"/></g><g><path d="M7,14.206520000000001C7,10.226469999999999,10.226469999999999,7,14.206520000000001,7L25,7L25,17.804299999999998C25,21.778399999999998,21.778399999999998,25,17.804299999999998,25L14.19565,25L14.19565,21.4022L17.804299999999998,21.4022C19.7914,21.4022,21.4022,19.7914,21.4022,17.804299999999998L14.19565,17.804299999999998L14.19565,14.19565L21.4022,14.19565L21.4022,10.59783L14.19565,10.59783C12.20863,10.59783,10.59783,12.20863,10.59783,14.19565L10.59783,17.804299999999998L7,17.804299999999998L7,14.206520000000001ZM10.59783,21.4022L7,21.4022L7,25L10.59783,25L10.59783,21.4022Z" fill-rule="evenodd" fill="#FFFFFF" fill-opacity="1"/></g></g></svg>