<svg xmlns="http://www.w3.org/2000/svg" xmlns:xlink="http://www.w3.org/1999/xlink" fill="none" version="1.1" width="32" height="32" viewBox="0 0 32 32"><defs><mask id="master_svg0_1_007410"><g><path d="M6.618036985397338,4L25.60833698539734,4L25.60833698539734,10.322320000000001L6.618036985397338,10.322320000000001L6.618036985397338,4Z" fill-rule="evenodd" fill="#FFFFFF" fill-opacity="1"/></g></mask><mask id="master_svg1_1_007392"><g><path d="M16.553006172180176,11.61237621307373L28.000006172180175,11.61237621307373L28.000006172180175,27.867876213073732L16.553006172180176,27.867876213073732L16.553006172180176,11.61237621307373Z" fill-rule="evenodd" fill="#FFFFFF" fill-opacity="1"/></g></mask><mask id="master_svg2_1_007400"><g><path d="M6.385962009429932,4L25.37566200942993,4L25.37566200942993,10.3199L6.385962009429932,10.3199L6.385962009429932,4Z" fill-rule="evenodd" fill="#FFFFFF" fill-opacity="1"/></g></mask><mask id="master_svg3_1_007405"><g><path d="M4,11.607312202453613L15.4472,11.607312202453613L15.4472,27.862012202453613L4,27.862012202453613L4,11.607312202453613Z" fill-rule="evenodd" fill="#FFFFFF" fill-opacity="1"/></g></mask></defs><g><g><ellipse cx="16" cy="16" rx="16" ry="16" fill="#F3F2FF" fill-opacity="1"/></g><g><g><path d="M19.205068588256836,17.76114867095947L20.648958588256836,18.594278670959472L20.648958588256836,13.273598670959473L19.205068588256836,14.106727670959472L19.205068588256836,17.76114867095947ZM20.576538588256835,18.468938670959474L19.277334188256837,17.719368670959472L19.277334188256837,14.148492670959472L20.576538588256835,13.398842670959473L20.576538588256835,18.468938670959474Z" fill-rule="evenodd" fill="#897AA3" fill-opacity="1"/></g><g><path d="M16.077113151550293,19.5256320501709L16.077113151550293,21.191962050170897L20.685113151550294,18.531621050170898L19.241223151550294,17.6984920501709L16.095197951550293,19.5152120501709L16.077113151550293,19.5256320501709ZM16.149378751550294,21.0666920501709L16.149378751550294,19.5674620501709L19.241153151550293,17.7819881501709L20.540363151550295,18.531638050170898L16.149378751550294,21.0666920501709Z" fill-rule="evenodd" fill="#897AA3" fill-opacity="1"/></g><g><path d="M11.541512489318848,13.33622186264038L12.984672489318848,14.169351862640381L16.149512489318848,12.342211862640381L16.149512489318848,10.67588186264038L11.541512489318848,13.33622186264038ZM12.984532489318848,14.085821862640381L11.686043489318848,13.33617186264038L16.07702248931885,10.801125862640381L16.07702248931885,12.30042186264038L12.984532489318848,14.085821862640381Z" fill-rule="evenodd" fill="#897AA3" fill-opacity="1"/></g><g><path d="M16.077113151550293,12.34218277557373L19.241223151550294,14.16932277557373L20.685113151550294,13.33619277557373L16.077113151550293,10.67585277557373L16.077113151550293,12.34218277557373ZM19.241153151550293,14.085792775573731L16.149378751550294,12.30039277557373L16.149378751550294,10.80109677557373L20.540363151550295,13.33614277557373L19.241153151550293,14.085792775573731Z" fill-rule="evenodd" fill="#897AA3" fill-opacity="1"/></g><g><path d="M11.57768201828003,13.273591995239258L11.57768201828003,18.594271995239257L13.002762018280029,17.771561995239257L13.02084201828003,17.761141995239257L13.02084201828003,14.106720995239257L11.57768201828003,13.273591995239258ZM11.649947618280029,18.46886199523926L11.649947618280029,13.398835995239258L12.948432018280029,14.148412995239259L12.948432018280029,17.719281995239257L11.649947618280029,18.46886199523926Z" fill-rule="evenodd" fill="#897AA3" fill-opacity="1"/></g><g><path d="M11.541512489318848,18.53159911566162L16.149512489318848,21.19194011566162L16.149512489318848,19.52561011566162L12.984672489318848,17.69847011566162L11.541512489318848,18.53159911566162ZM16.07702248931885,21.066590115661622L11.686043489318848,18.53154311566162L12.984532489318848,17.781966215661622L16.07702248931885,19.56737011566162L16.07702248931885,21.066590115661622Z" fill-rule="evenodd" fill="#897AA3" fill-opacity="1"/></g><g><path d="M16.077113151550293,19.609201651000976L16.077113151550293,15.871301651000977L19.313563151550294,17.740251651000975L16.077113151550293,19.609201651000976Z" fill-rule="evenodd" fill="#897AA3" fill-opacity="1"/></g><g><path d="M19.27739409942627,17.80288146057129L16.04094409942627,15.933931460571289L19.27739409942627,14.064981460571289L19.27739409942627,17.80288146057129Z" fill-rule="evenodd" fill="#897AA3" fill-opacity="1"/></g><g><path d="M16.149450082702636,15.996552687072754L12.912280082702637,14.127602687072754L16.149450082702636,12.258652687072754L16.149450082702636,15.996552687072754Z" fill-rule="evenodd" fill="#897AA3" fill-opacity="1"/></g><g><path d="M16.077113151550293,15.996588926696777L16.077113151550293,12.258688926696777L19.313563151550294,14.127638926696777L16.077113151550293,15.996588926696777Z" fill-rule="evenodd" fill="#897AA3" fill-opacity="1"/></g><g><path d="M16.09519461456299,15.96526061553955L12.966534614562988,14.15895621553955L13.002704114562988,14.09631061553955L16.131364614562987,15.90262061553955L16.09519461456299,15.96526061553955Z" fill-rule="evenodd" fill="#897AA3" fill-opacity="1"/></g><g><path d="M16.09519461456299,15.96526061553955L12.966534614562988,14.15895621553955L13.002704114562988,14.09631061553955L16.131364614562987,15.90262061553955L16.09519461456299,15.96526061553955Z" fill-rule="evenodd" fill="#897AA3" fill-opacity="1"/></g><g><path d="M12.94844913482666,17.802873831176758L12.94844913482666,14.064973831176758L16.18561913482666,15.933923831176758L12.94844913482666,17.802873831176758Z" fill-rule="evenodd" fill="#897AA3" fill-opacity="1"/></g><g><path d="M16.149450082702636,19.609201651000976L12.912280082702637,17.740251651000975L16.149450082702636,15.871301651000977L16.149450082702636,19.609201651000976Z" fill-rule="evenodd" fill="#897AA3" fill-opacity="1"/></g><g><g><g><g></g><g mask="url(#master_svg0_1_007410)"><g><path d="M6.709907585397338,8.467078392057529L6.618036985397338,8.514098392057528C7.744936985397338,7.097988392057529,9.178476985397339,5.955968392057528,10.810666985397338,5.174058392057528C12.442846985397338,4.392215392057528,14.231146985397338,3.990805702057528,16.040916985397338,4.000137444057528C19.82353698539734,4.000137444057528,23.20613698539734,5.802098392057529,25.37843698539734,8.514098392057528C25.772736985397337,9.038548392057528,25.618636985397337,9.794498392057529,25.22793698539734,10.027428392057528C24.26223698539734,10.606138392057527,21.41643698539734,10.428188392057528,18.92723698539734,8.631288392057527C16.181986985397337,6.649198392057528,13.395486985397337,5.022288392057528,6.709907585397338,8.467078392057529L6.709907585397338,8.467078392057529Z" fill="#C3BFDF" fill-opacity="1"/></g></g></g></g><g><g><g></g><g mask="url(#master_svg1_1_007392)"><g><path d="M27.16820617218024,11.61237621307373L27.16370617218024,11.715821213073731C26.802006172180242,19.22750621307373,24.001806172180245,20.83054621307373,20.912276172180242,22.21437621307373C18.112036172180243,23.47087621307373,16.537139772180243,25.848076213073732,16.553126709180244,26.97217621307373C16.559637222180243,27.42717621307373,17.136830172180243,27.93857621307373,17.788676172180242,27.85977621307373C21.222616172180242,27.33457621307373,24.47497617218024,25.30617621307373,26.366646172180243,22.02987621307373C27.279406172180245,20.467256213073732,27.825906172180243,18.71773621307373,27.964806172180243,16.91330621307373C28.103606172180243,15.10881621307373,27.831206172180245,13.29635621307373,27.16820617218024,11.61237621307373L27.16820617218024,11.61237621307373Z" fill="#C3BFDF" fill-opacity="1"/></g></g></g></g><g><path d="M8.156686670020669,17.13257915084839C8.469196670020668,14.079149150848389,7.198196670020669,11.526300150848389,6.21655667002067,10.978693050848388C5.81868667002067,10.756612150848389,5.08734667002067,11.001118150848388,4.82981567002067,11.604426150848388C3.56749967002067,14.841599150848388,3.6984326700206696,18.671949150848388,5.58937667002067,21.94889915084839C6.48674667002067,23.52109915084839,7.729166670020669,24.869199150848388,9.223036670020669,25.89159915084839C10.71691667002067,26.91409915084839,12.423246670020669,27.584299150848388,14.21361667002067,27.85179915084839L14.12681667002067,27.796099150848388C7.79788667002067,23.72849915084839,7.81307667002067,20.50140915084839,8.156686670020669,17.13257915084839L8.156686670020669,17.13257915084839Z" fill="#C3BFDF" fill-opacity="1"/></g><g><g><g></g><g mask="url(#master_svg2_1_007400)"><g><path d="M6.618109009558398,8.5140861084187C8.788282009558397,5.8020961084187,12.170132009558397,4.000130210418701,15.949852009558398,4.000130210418701C17.7601620095584,3.990364438418701,19.548962009558398,4.3915571084187,21.181662009558398,5.173466108418701C22.814462009558397,5.9553861084187005,24.2484620095584,7.0976161084187,25.375662009558397,8.5140861084187L25.283762009558398,8.4670661084187C18.598162009558397,5.0222761084187,15.811682009558398,6.649186108418701,13.066412009558398,8.629826108418701C10.577952009558398,10.426736108418702,7.731412009558397,10.602516108418701,6.766405009558397,10.0259761084187C6.375050209558398,9.7944861084187,6.220968009558398,9.0385461084187,6.618109009558398,8.5140861084187L6.618109009558398,8.5140861084187Z" fill-rule="evenodd" fill="#897AA3" fill-opacity="1"/></g></g></g></g><g><path d="M27.173249321899412,11.61022003289795C26.915719321899417,11.00691303289795,26.184369321899414,10.761683032897949,25.786509321899416,10.98376413289795C24.804859321899414,11.53209403289795,23.533869321899413,14.084219032897948,23.845649321899415,17.13836903289795C24.189979321899415,20.50719903289795,24.207339321899415,23.733479032897947,17.879846121899416,27.80117903289795L17.793039321899414,27.85687903289795C19.582779321899416,27.58907903289795,21.288389321899416,26.91857903289795,22.781469321899415,25.89607903289795C24.274619321899415,24.87377903289795,25.516249321899416,23.525879032897947,26.412959321899415,21.953979032897948C28.301839321899415,18.67774903289795,28.432639321899416,14.84666903289795,27.170349321899415,11.61022003289795L27.173249321899412,11.61022003289795Z" fill-rule="evenodd" fill="#897AA3" fill-opacity="1"/></g><g><g><g></g><g mask="url(#master_svg3_1_007405)"><g><path d="M11.087942124209711,22.208612202453615C7.998342124209712,20.822582202453614,5.196642124209712,19.222442202453614,4.836398124209712,11.710033202453614C4.836398124209712,11.676034302453614,4.836398124209712,11.637694602453614,4.831335124209712,11.607312202453613C4.168564124209712,13.291292202453613,3.8963521242097117,15.103602202453613,4.035315924209711,16.90803220245361C4.174279124209711,18.712312202453614,4.720728124209712,20.461682202453613,5.633572124209712,22.024112202453615C7.525242124209711,25.300412202453614,10.77760212420971,27.328712202453612,14.21149212420971,27.853912202453614C14.862592124209712,27.932812202453615,15.441292124209712,27.419912202453613,15.447092124209712,26.96641220245361C15.46299212420971,25.842212202453613,13.888182124209711,23.465812202453613,11.087942124209711,22.208612202453615L11.087942124209711,22.208612202453615Z" fill-rule="evenodd" fill="#897AA3" fill-opacity="1"/></g></g></g></g></g></g></g></svg>