<svg xmlns="http://www.w3.org/2000/svg" xmlns:xlink="http://www.w3.org/1999/xlink" fill="none" version="1.1" width="32" height="32" viewBox="0 0 32 32"><defs><mask id="master_svg0_1_007227"><g><path d="M0,0L32,0L32,32L0,32L0,0Z" fill-rule="evenodd" fill="#FFFFFF" fill-opacity="1"/></g></mask></defs><g><g><g></g><g mask="url(#master_svg0_1_007227)"><g><path d="M15.999913092833594,0C24.836713092833595,0,32.0000130928336,7.16332,32.0000130928336,16C32.0000130928336,24.8368,24.836713092833595,32.0001,15.999913092833594,32.0001C7.163673092833594,32.0001,-0.00008690716640558094,24.8368,-0.00008690716640558094,16C-0.00008690716640558094,7.16332,7.163673092833594,0,15.999913092833594,0L15.999913092833594,0Z" fill-rule="evenodd" fill="#FAC00A" fill-opacity="1"/></g></g></g><g><path d="M12.12154,14.39241L14.39367,12.12762L14.87255,11.64874L16.0084,10.51329L19.8749,14.39241L22.1258,12.12762L16.0084,6L9.87061,12.12762L12.12154,14.39241ZM13.75098,16.000799999999998L16.0113,13.74048L18.2712,16.000799999999998L16.0113,18.2611L13.75098,16.000799999999998ZM21.4893,16.005699999999997L23.7496,13.74536L26.0095,16.005699999999997L23.7496,18.266L21.4893,16.005699999999997ZM6,16.006999999999998L8.26031,13.74707L10.520620000000001,16.006999999999998L8.26031,18.2673L6,16.006999999999998ZM19.8749,17.621299999999998L16.007199999999997,21.4895L14.39856,19.8808L12.12154,17.621299999999998L9.87061,19.8723L16.0084,25.9999L22.1258,19.8723L19.8749,17.621299999999998Z" fill-rule="evenodd" fill="#FFFFFF" fill-opacity="1"/></g></g></svg>