<svg xmlns="http://www.w3.org/2000/svg" viewBox="0 0 40 40" fill="none">
  <circle cx="20" cy="20" r="20" fill="#F7931A"/>
  <path d="M27.3 17.4c.4-2.6-1.6-4-4.3-4.9l.9-3.5-2.1-.5-.9 3.4c-.6-.1-1.1-.3-1.7-.4l.9-3.5-2.1-.5-.9 3.5c-.5-.1-.9-.2-1.4-.3l-2.9-.7-.6 2.3s1.6.4 1.5.4c.9.2 1 .8 1 1.2l-1 4.1c.1 0 .1 0 .2.1h-.2l-1.4 5.8c-.1.3-.4.7-1 .5 0 0-1.5-.4-1.5-.4l-1 2.4 2.7.7c.5.1 1 .3 1.5.4l-.9 3.6 2.1.5.9-3.5c.6.2 1.1.3 1.7.4l-.9 3.5 2.1.5.9-3.6c3.7.7 6.5.4 7.7-2.9.9-2.7 0-4.2-2-5.2 1.4-.3 2.5-1.3 2.8-3.2zm-5 7c-.7 2.7-5.2 1.2-6.7.9l1.2-4.8c1.5.4 6.2 1.1 5.5 3.9zm.7-7c-.6 2.4-4.4 1.2-5.6.9l1.1-4.4c1.2.3 5.2.9 4.5 3.5z" fill="white"/>
</svg>
