<svg xmlns="http://www.w3.org/2000/svg" xmlns:xlink="http://www.w3.org/1999/xlink" fill="none" version="1.1" width="32" height="32" viewBox="0 0 32 32"><defs><mask id="master_svg0_1_007741"><g><path d="M0,0L32,0L32,32L0,32L0,0Z" fill-rule="evenodd" fill="#FFFFFF" fill-opacity="1"/></g></mask></defs><g><g><g></g><g mask="url(#master_svg0_1_007741)"><g><path d="M15.999913092833594,0C24.836713092833595,0,32.0000130928336,7.16332,32.0000130928336,16C32.0000130928336,24.8368,24.836713092833595,32.0001,15.999913092833594,32.0001C7.163673092833594,32.0001,-0.00008690716640558094,24.8368,-0.00008690716640558094,16C-0.00008690716640558094,7.16332,7.163673092833594,0,15.999913092833594,0L15.999913092833594,0Z" fill-rule="evenodd" fill="#F2313E" fill-opacity="1"/></g></g></g><g><path d="M14.783835164489746,25.46374395828247C14.788985164489747,25.46394395828247,14.794165164489746,25.46394395828247,14.799405164489746,25.46394395828247C15.007535164489745,25.46394395828247,15.195805164489746,25.35734395828247,15.305555164489746,25.19134395828247L23.537995164489747,13.55164395828247C23.553395164489746,13.531313958282471,23.567395164489746,13.510093958282472,23.579995164489745,13.488123958282472C23.725095164489744,13.23949395828247,23.674395164489745,12.919923958282471,23.456495164489745,12.72797395828247C23.447095164489745,12.719643958282472,23.437395164489747,12.71162395828247,23.42749516448975,12.70393395828247L21.205995164489746,10.939483958282471C21.133395164489748,10.87716395828247,21.049695164489748,10.83478395828247,20.961895164489746,10.81231395828247L9.036454164489745,7.486580858282471C8.819082164489746,7.424986658282471,8.584112164489746,7.491469358282471,8.429311164489746,7.657023958282471C8.392954164489746,7.695906958282471,8.362386164489745,7.73877995828247,8.337867964489746,7.784394958282471C8.314035064489746,7.828687958282471,8.295991664489746,7.87548495828247,8.283869364489746,7.923602958282471C8.271592374489746,7.9722919582824705,8.265352644389747,8.02244695828247,8.265395382536745,8.072895958282471C8.265432915289747,8.13969995828247,8.276463964489746,8.20671995828247,8.298810564489747,8.27105895828247C8.299180964489747,8.27212995828247,8.299554464489747,8.27319995828247,8.299931064489746,8.27426995828247L14.225355164489745,25.05884395828247C14.264605164489746,25.16974395828247,14.334185164489746,25.26444395828247,14.423385164489746,25.33434395828247C14.509795164489745,25.402343958282472,14.615655164489745,25.44764395828247,14.732925164489746,25.46044395828247C14.749825164489746,25.46234395828247,14.766945164489746,25.463443958282472,14.783835164489746,25.46374395828247ZM10.637485164489746,11.243853958282472L15.061365164489747,16.76186395828247L14.481245164489746,22.13334395828247L10.637485164489746,11.243853958282472ZM10.526885164489746,9.16394395828247L15.740795164489747,15.668603958282471L19.651795164489748,11.70907395828247L10.526885164489746,9.16394395828247ZM20.859095164489744,12.21622395828247L18.477895164489745,14.62667395828247L21.90309516448975,13.045533958282471L20.859095164489744,12.21622395828247ZM21.244895164489748,14.688783958282471L16.322815164489747,16.96089395828247C16.303005164489747,17.00033395828247,16.278705164489747,17.037933958282473,16.249985164489747,17.07288395828247L15.653665164489746,22.594343958282472L21.244895164489748,14.688783958282471Z" fill-rule="evenodd" fill="#FFFFFF" fill-opacity="1"/></g></g></svg>