<svg xmlns="http://www.w3.org/2000/svg" xmlns:xlink="http://www.w3.org/1999/xlink" fill="none" version="1.1" width="32" height="32" viewBox="0 0 32 32"><g><g><path d="M32,16C32,24.837,24.837,32,16,32C7.163,32,0,24.837,0,16C0,7.163,7.163,0,16,0C24.837,0,32,7.163,32,16L32,16Z" fill-rule="evenodd" fill="#F9BD46" fill-opacity="1"/></g><g><path d="M18.314200387573244,8.95920092980957Q17.230700387573243,8.566099929809571,16.034100387573243,8.566099929809571L9.961100387573243,8.566099929809571L9.961100387573243,23.43409992980957L16.13710038757324,23.43409992980957Q17.41618038757324,23.43409992980957,18.529780387573243,22.99909992980957Q20.535410387573243,22.21589992980957,21.842300387573243,20.859699929809572Q23.776100387573244,18.85281992980957,23.776100387573244,15.973099929809571Q23.776100387573244,13.05416992980957,21.743800387573245,11.05116992980957Q20.38486038757324,9.71175092980957,18.314200387573244,8.95920092980957ZM11.361100387573241,9.96609992980957L16.034100387573243,9.96609992980957Q16.984580387573242,9.96609992980957,17.836000387573243,10.27499992980957Q19.619620387573242,10.92322992980957,20.761100387573244,12.048269929809571Q22.376100387573242,13.64001992980957,22.376100387573242,15.973099929809571Q22.376100387573242,18.28806992980957,20.83420038757324,19.88829992980957Q19.74025038757324,21.02349992980957,18.020420387573242,21.695099929809572Q17.152460387573242,22.03409992980957,16.13710038757324,22.03409992980957L11.361100387573241,22.03409992980957L11.361100387573241,9.96609992980957Z" fill-rule="evenodd" fill="#FFFFFF" fill-opacity="1"/></g><g><path d="M25.264800132751464,14.815699768066406L8.000800132751465,14.815699768066406L8.000800132751465,13.415699768066407L25.264800132751464,13.415699768066407L25.264800132751464,14.815699768066406Z" fill-rule="evenodd" fill="#FFFFFF" fill-opacity="1"/></g><g><path d="M25.264800132751464,18.41820068359375L8.000800132751465,18.41820068359375L8.000800132751465,17.01820068359375L25.264800132751464,17.01820068359375L25.264800132751464,18.41820068359375Z" fill-rule="evenodd" fill="#FFFFFF" fill-opacity="1"/></g></g></svg>