<svg xmlns="http://www.w3.org/2000/svg" xmlns:xlink="http://www.w3.org/1999/xlink" fill="none" version="1.1" width="40" height="19" viewBox="0 0 40 19"><defs><linearGradient x1="0.32924145460128784" y1="0" x2="0.9387658961880377" y2="1.0519763656643772" id="master_svg0_10_574"><stop offset="0%" stop-color="#FFFFFF" stop-opacity="1"/><stop offset="37.857142090797424%" stop-color="#9EE52C" stop-opacity="1"/><stop offset="46.16190791130066%" stop-color="#92DC1A" stop-opacity="1"/><stop offset="100%" stop-color="#CFFD85" stop-opacity="1"/></linearGradient><linearGradient x1="0.32780131697654724" y1="0" x2="0.585506796836853" y2="1.2133057117462158" id="master_svg1_10_576"><stop offset="1.124268677085638%" stop-color="#FFFFFF" stop-opacity="1"/><stop offset="41.059428453445435%" stop-color="#FFFFFF" stop-opacity="0"/><stop offset="62.34120726585388%" stop-color="#FFFFFF" stop-opacity="0.4469728469848633"/><stop offset="100%" stop-color="#FFFFFF" stop-opacity="0.6000000238418579"/></linearGradient></defs><g><path d="M0 6C4.90527396329193e-16 2.686291501015239 2.6862915010152397 0 6 0L34 0C37.31370849898476 0 40 2.6862915010152397 40 6L40 13C40 16.31370849898476 37.31370849898476 19 34 19L6 19C2.6862915010152397 19 0 16.31370849898476 0 13Z" fill="url(#master_svg0_10_574)" fill-opacity="1"/><path d="M39.9941,8.24527C39.9722,5.55869,39.8688,4.33503,39.3812,3.34627C38.7971,2.16167,37.8383,1.20294,36.6537,0.618763C35.399,0,33.766,0,29.2453,0L10.7547,0C6.234,0,4.601,0,3.34627,0.618763C2.16167,1.20294,1.20294,2.16167,0.618763,3.34627C0.131161,4.33503,0.0278025,5.55869,0.00589337,8.24527C0.00273973,8.63198,0.00127365,9.04901,0.000592099,9.5C-8.17981e-12,9.1082,0,8.69076,0,8.24527L0,10.7547C0,10.3092,-1.0724e-11,9.8918,0.000592099,9.5C0.00127365,9.95099,0.00273973,10.368,0.00589337,10.7547C0.0278025,13.4413,0.131161,14.665,0.618763,15.6537C1.20294,16.8383,2.16167,17.7971,3.34627,18.3812C4.601,19,6.234,19,10.7547,19L29.2453,19C33.766,19,35.399,19,36.6537,18.3812C37.8383,17.7971,38.7971,16.8383,39.3812,15.6537C39.8688,14.665,39.9722,13.4413,39.9941,10.7547C39.9973,10.368,39.9987,9.95099,39.9994,9.5C40,9.8918,40,10.3092,40,10.7547L40,8.24527C40,8.69076,40,9.1082,39.9994,9.5C39.9987,9.04901,39.9973,8.63198,39.9941,8.24527ZM38.9936,9.50001Q38.9427,14.2819,38.4844,15.2114Q37.7337,16.7337,36.2114,17.4844Q35.1658,18,29.2453,18L10.7547,18Q4.83416,18,3.78856,17.4844Q2.26632,16.7337,1.51564,15.2114Q1.05726,14.2819,1.00636,9.5Q1.05726,4.71806,1.51564,3.78856Q2.26632,2.26632,3.78856,1.51564Q4.83417,1,10.7547,1L29.2453,1Q35.1658,1,36.2114,1.51564Q37.7337,2.26632,38.4844,3.78856Q38.9427,4.71806,38.9936,9.50001Z" fill-rule="evenodd" stroke="url(#master_svg1_10_576)" fill-opacity="0" fill="none" stroke-width="1"/><g><path d="M7.82,3.99L14.596,3.99L14.414,5.502L9.29,5.502L8.926,8.428L13.405999999999999,8.428L13.224,9.926L8.744,9.926L8.366,12.978L13.616,12.978L13.434000000000001,14.504L6.532,14.504L7.82,3.99ZM17.578,14.56Q15.744,14.56,14.554,14.378L14.75,12.81Q16.458,13.02,17.759999999999998,13.02L17.942,13.02Q18.823999999999998,13.02,19.335,12.852Q19.846,12.684,20.07,12.362Q20.294,12.04,20.35,11.536Q20.378,11.284,20.378,11.186Q20.378,10.696,20.154,10.444Q19.93,10.192,19.489,10.087Q19.048000000000002,9.982,18.166,9.87Q17.158,9.758,16.57,9.52Q15.982,9.282,15.695,8.827Q15.408,8.372,15.408,7.602Q15.408,7.294,15.45,6.916Q15.632,5.334,16.514,4.662Q17.396,3.99,19.216,3.99L20.195999999999998,3.99Q21.259999999999998,3.99,22.548,4.018L22.366,5.558Q21.624000000000002,5.558,21.232,5.544L20.014,5.53L19.034,5.53Q18.012,5.53,17.543,5.887Q17.073999999999998,6.244,17.073999999999998,7.238Q17.073999999999998,7.672,17.242,7.889Q17.41,8.106,17.704,8.190000000000001Q17.997999999999998,8.274000000000001,18.656,8.372Q18.782,8.386,19.16,8.442Q20.195999999999998,8.596,20.811999999999998,8.847999999999999Q21.428,9.1,21.736,9.569Q22.044,10.038,22.044,10.836Q22.044,11.13,22.002,11.466Q21.862000000000002,12.628,21.393,13.3Q20.924,13.972,20.042,14.266Q19.16,14.56,17.759999999999998,14.56L17.578,14.56ZM23.136,13.342Q23.192,12.978,23.423,12.775Q23.654,12.572,24.004,12.572L24.41,12.572Q24.76,12.572,24.963,12.775Q25.166,12.978,25.11,13.342L25.054,13.762Q24.998,14.14,24.76,14.35Q24.522,14.56,24.172,14.56L23.766,14.56Q23.416,14.56,23.22,14.35Q23.024,14.14,23.08,13.762L23.136,13.342ZM32.04,7.028Q32.11,6.314,31.683,5.922Q31.256,5.53,30.318,5.53Q28.974,5.53,27.77,5.74L27.966,4.1579999999999995Q29.31,3.99,30.5,3.99Q32.123999999999995,3.99,32.915,4.746Q33.706,5.502,33.706,6.664Q33.706,6.888,33.692,7Q33.58,7.882,33.216,8.469999999999999Q32.852000000000004,9.058,32.25,9.471Q31.648,9.884,30.654,10.332Q29.94,10.654,29.471,10.962Q29.002,11.27,28.68,11.76Q28.358,12.25,28.26,12.964L32.894,12.964L32.712,14.504L26.44,14.504L26.65,12.964Q26.874,11.536,27.763,10.605Q28.652,9.674,29.856,9.156Q30.668,8.792,31.053,8.575Q31.438,8.358,31.704,7.994Q31.97,7.63,32.04,7.028Z" fill="#FFFFFF" fill-opacity="1"/></g></g></svg>