<svg xmlns="http://www.w3.org/2000/svg" xmlns:xlink="http://www.w3.org/1999/xlink" fill="none" version="1.1" width="42" height="19" viewBox="0 0 42 19"><defs><linearGradient x1="0.32924145460128784" y1="0" x2="0.971314447766813" y2="1.0051263592556923" id="master_svg0_10_622"><stop offset="0%" stop-color="#FFFFFF" stop-opacity="1"/><stop offset="30.143380165100098%" stop-color="#FFC44F" stop-opacity="1"/><stop offset="45.27497589588165%" stop-color="#F49300" stop-opacity="1"/><stop offset="63.81736397743225%" stop-color="#FFB554" stop-opacity="1"/><stop offset="96.8984067440033%" stop-color="#FFFC60" stop-opacity="1"/></linearGradient><linearGradient x1="0.32780131697654724" y1="0" x2="0.585506796836853" y2="1.2133057117462158" id="master_svg1_10_576"><stop offset="1.124268677085638%" stop-color="#FFFFFF" stop-opacity="1"/><stop offset="41.059428453445435%" stop-color="#FFFFFF" stop-opacity="0"/><stop offset="62.34120726585388%" stop-color="#FFFFFF" stop-opacity="0.4469728469848633"/><stop offset="100%" stop-color="#FFFFFF" stop-opacity="0.6000000238418579"/></linearGradient></defs><g><path d="M0 6C4.90527396329193e-16 2.686291501015239 2.6862915010152397 0 6 0L36 0C39.31370849898476 0 42 2.6862915010152397 42 6L42 13C42 16.31370849898476 39.31370849898476 19 36 19L6 19C2.6862915010152397 19 0 16.31370849898476 0 13Z" fill="url(#master_svg0_10_622)" fill-opacity="1"/><path d="M41.9941,8.24527C41.9722,5.55869,41.8688,4.33503,41.3812,3.34627C40.7971,2.16167,39.8383,1.20294,38.6537,0.618763C37.399,0,35.766,0,31.2453,0L10.7547,0C6.234,0,4.601,0,3.34627,0.618763C2.16167,1.20294,1.20294,2.16167,0.618763,3.34627C0.131161,4.33503,0.0278025,5.55869,0.00589337,8.24527C0.00273973,8.63198,0.00127365,9.04901,0.000592099,9.5C-8.17981e-12,9.1082,0,8.69076,0,8.24527L0,10.7547C0,10.3092,-1.0724e-11,9.8918,0.000592099,9.5C0.00127365,9.95099,0.00273973,10.368,0.00589337,10.7547C0.0278025,13.4413,0.131161,14.665,0.618763,15.6537C1.20294,16.8383,2.16167,17.7971,3.34627,18.3812C4.601,19,6.234,19,10.7547,19L31.2453,19C35.766,19,37.399,19,38.6537,18.3812C39.8383,17.7971,40.7971,16.8383,41.3812,15.6537C41.8688,14.665,41.9722,13.4413,41.9941,10.7547C41.9973,10.368,41.9987,9.95099,41.9994,9.5C42,9.8918,42,10.3092,42,10.7547L42,8.24527C42,8.69076,42,9.1082,41.9994,9.5C41.9987,9.04901,41.9973,8.63198,41.9941,8.24527ZM40.9936,9.50001Q40.9427,14.2819,40.4844,15.2114Q39.7337,16.7337,38.2114,17.4844Q37.1658,18,31.2453,18L10.7547,18Q4.83416,18,3.78856,17.4844Q2.26632,16.7337,1.51564,15.2114Q1.05726,14.2819,1.00636,9.5Q1.05726,4.71806,1.51564,3.78856Q2.26632,2.26632,3.78856,1.51564Q4.83417,1,10.7547,1L31.2453,1Q37.1658,1,38.2114,1.51564Q39.7337,2.26632,40.4844,3.78856Q40.9427,4.71806,40.9936,9.50001Z" fill-rule="evenodd" stroke="url(#master_svg1_10_576)" fill-opacity="0" fill="none" stroke-width="1"/><g><path d="M7.82,3.99L14.596,3.99L14.414,5.502L9.29,5.502L8.926,8.428L13.405999999999999,8.428L13.224,9.926L8.744,9.926L8.366,12.978L13.616,12.978L13.434000000000001,14.504L6.532,14.504L7.82,3.99ZM17.578,14.56Q15.744,14.56,14.554,14.378L14.75,12.81Q16.458,13.02,17.759999999999998,13.02L17.942,13.02Q18.823999999999998,13.02,19.335,12.852Q19.846,12.684,20.07,12.362Q20.294,12.04,20.35,11.536Q20.378,11.284,20.378,11.186Q20.378,10.696,20.154,10.444Q19.93,10.192,19.489,10.087Q19.048000000000002,9.982,18.166,9.87Q17.158,9.758,16.57,9.52Q15.982,9.282,15.695,8.827Q15.408,8.372,15.408,7.602Q15.408,7.294,15.45,6.916Q15.632,5.334,16.514,4.662Q17.396,3.99,19.216,3.99L20.195999999999998,3.99Q21.259999999999998,3.99,22.548,4.018L22.366,5.558Q21.624000000000002,5.558,21.232,5.544L20.014,5.53L19.034,5.53Q18.012,5.53,17.543,5.887Q17.073999999999998,6.244,17.073999999999998,7.238Q17.073999999999998,7.672,17.242,7.889Q17.41,8.106,17.704,8.190000000000001Q17.997999999999998,8.274000000000001,18.656,8.372Q18.782,8.386,19.16,8.442Q20.195999999999998,8.596,20.811999999999998,8.847999999999999Q21.428,9.1,21.736,9.569Q22.044,10.038,22.044,10.836Q22.044,11.13,22.002,11.466Q21.862000000000002,12.628,21.393,13.3Q20.924,13.972,20.042,14.266Q19.16,14.56,17.759999999999998,14.56L17.578,14.56ZM23.136,13.342Q23.192,12.978,23.423,12.775Q23.654,12.572,24.004,12.572L24.41,12.572Q24.76,12.572,24.963,12.775Q25.166,12.978,25.11,13.342L25.054,13.762Q24.998,14.14,24.76,14.35Q24.522,14.56,24.172,14.56L23.766,14.56Q23.416,14.56,23.22,14.35Q23.024,14.14,23.08,13.762L23.136,13.342ZM29.254,3.99L30.864,3.99L28.82,10.388L31.732,10.388L32.516,3.99L34.168,3.99L33.384,10.388L34.602000000000004,10.388L34.42,11.928L33.202,11.928L32.879999999999995,14.504L31.228,14.504L31.55,11.928L26.818,11.928L26.972,10.696L29.254,3.99Z" fill="#FFFFFF" fill-opacity="1"/></g></g></svg>