<svg xmlns="http://www.w3.org/2000/svg" xmlns:xlink="http://www.w3.org/1999/xlink" fill="none" version="1.1" width="41" height="19" viewBox="0 0 41 19"><defs><linearGradient x1="0.32081174850463867" y1="-0.14475098252296448" x2="0.9381531320595778" y2="0.968132125951253" id="master_svg0_10_2040"><stop offset="0%" stop-color="#000000" stop-opacity="1"/><stop offset="3.57142873108387%" stop-color="#FAA640" stop-opacity="1"/><stop offset="38.57142925262451%" stop-color="#E7912B" stop-opacity="1"/><stop offset="60.5435848236084%" stop-color="#2495FF" stop-opacity="1"/><stop offset="100%" stop-color="#E6E1FF" stop-opacity="1"/></linearGradient><linearGradient x1="0.32780131697654724" y1="0" x2="0.585506796836853" y2="1.2133057117462158" id="master_svg1_10_2054"><stop offset="0%" stop-color="#E9E5FF" stop-opacity="1"/><stop offset="41.05943143367767%" stop-color="#FBA04A" stop-opacity="1"/><stop offset="62.34120726585388%" stop-color="#D5CDFF" stop-opacity="1"/><stop offset="100%" stop-color="#FFFFFF" stop-opacity="1"/></linearGradient></defs><g><path d="M0 6C4.90527396329193e-16 2.686291501015239 2.6862915010152397 0 6 0L35 0C38.31370849898476 0 41 2.6862915010152397 41 6L41 13C41 16.31370849898476 38.31370849898476 19 35 19L6 19C2.6862915010152397 19 0 16.31370849898476 0 13Z" fill="url(#master_svg0_10_2040)" fill-opacity="1"/><path d="M40.9941,8.24527C40.9722,5.55869,40.8688,4.33503,40.3812,3.34627C39.7971,2.16167,38.8383,1.20294,37.6537,0.618763C36.399,0,34.766,0,30.2453,0L10.7547,0C6.234,0,4.601,0,3.34627,0.618763C2.16167,1.20294,1.20294,2.16167,0.618763,3.34627C0.131161,4.33503,0.0278025,5.55869,0.00589337,8.24527C0.00273973,8.63198,0.00127365,9.04901,0.000592099,9.5C-8.17981e-12,9.1082,0,8.69076,0,8.24527L0,10.7547C0,10.3092,-1.0724e-11,9.8918,0.000592099,9.5C0.00127365,9.95099,0.00273973,10.368,0.00589337,10.7547C0.0278025,13.4413,0.131161,14.665,0.618763,15.6537C1.20294,16.8383,2.16167,17.7971,3.34627,18.3812C4.601,19,6.234,19,10.7547,19L30.2453,19C34.766,19,36.399,19,37.6537,18.3812C38.8383,17.7971,39.7971,16.8383,40.3812,15.6537C40.8688,14.665,40.9722,13.4413,40.9941,10.7547C40.9973,10.368,40.9987,9.95099,40.9994,9.5C41,9.8918,41,10.3092,41,10.7547L41,8.24527C41,8.69076,41,9.1082,40.9994,9.5C40.9987,9.04901,40.9973,8.63198,40.9941,8.24527ZM39.9936,9.49998Q39.9427,14.2819,39.4844,15.2114Q38.7337,16.7337,37.2114,17.4844Q36.1658,18,30.2453,18L10.7547,18Q4.83416,18,3.78856,17.4844Q2.26632,16.7337,1.51564,15.2114Q1.05726,14.2819,1.00636,9.5Q1.05726,4.71806,1.51564,3.78856Q2.26632,2.26632,3.78856,1.51564Q4.83417,1,10.7547,1L30.2453,1Q36.1658,1,37.2114,1.51564Q38.7337,2.26632,39.4844,3.78856Q39.9427,4.71806,39.9936,9.49998Z" fill-rule="evenodd" stroke="url(#master_svg1_10_2054)" fill-opacity="0" fill="none" stroke-width="1"/><g><path d="M7.82,3.99L14.596,3.99L14.414,5.502L9.29,5.502L8.926,8.428L13.405999999999999,8.428L13.224,9.926L8.744,9.926L8.366,12.978L13.616,12.978L13.434000000000001,14.504L6.532,14.504L7.82,3.99ZM17.578,14.56Q15.744,14.56,14.554,14.378L14.75,12.81Q16.458,13.02,17.759999999999998,13.02L17.942,13.02Q18.823999999999998,13.02,19.335,12.852Q19.846,12.684,20.07,12.362Q20.294,12.04,20.35,11.536Q20.378,11.284,20.378,11.186Q20.378,10.696,20.154,10.444Q19.93,10.192,19.489,10.087Q19.048000000000002,9.982,18.166,9.87Q17.158,9.758,16.57,9.52Q15.982,9.282,15.695,8.827Q15.408,8.372,15.408,7.602Q15.408,7.294,15.45,6.916Q15.632,5.334,16.514,4.662Q17.396,3.99,19.216,3.99L20.195999999999998,3.99Q21.259999999999998,3.99,22.548,4.018L22.366,5.558Q21.624000000000002,5.558,21.232,5.544L20.014,5.53L19.034,5.53Q18.012,5.53,17.543,5.887Q17.073999999999998,6.244,17.073999999999998,7.238Q17.073999999999998,7.672,17.242,7.889Q17.41,8.106,17.704,8.190000000000001Q17.997999999999998,8.274000000000001,18.656,8.372Q18.782,8.386,19.16,8.442Q20.195999999999998,8.596,20.811999999999998,8.847999999999999Q21.428,9.1,21.736,9.569Q22.044,10.038,22.044,10.836Q22.044,11.13,22.002,11.466Q21.862000000000002,12.628,21.393,13.3Q20.924,13.972,20.042,14.266Q19.16,14.56,17.759999999999998,14.56L17.578,14.56ZM23.136,13.342Q23.192,12.978,23.423,12.775Q23.654,12.572,24.004,12.572L24.41,12.572Q24.76,12.572,24.963,12.775Q25.166,12.978,25.11,13.342L25.054,13.762Q24.998,14.14,24.76,14.35Q24.522,14.56,24.172,14.56L23.766,14.56Q23.416,14.56,23.22,14.35Q23.024,14.14,23.08,13.762L23.136,13.342ZM32.6,5.474Q31.018,5.474,30.101,6.118Q29.184,6.762,29.044,8.218L29.002,8.315999999999999Q29.576,7.994,30.766,7.994L31.62,7.994Q32.879999999999995,8.008,33.524,8.561Q34.168,9.114,34.168,10.304Q34.168,10.57,34.153999999999996,10.724L34.084,11.466Q33.916,13.16,33.048,13.86Q32.18,14.56,30.57,14.56L30.206,14.56Q28.582,14.56,27.847,13.902Q27.112,13.244,27.112,11.676Q27.112,11.046,27.182,10.528L27.434,8.498000000000001Q27.728,6.23,29.03,5.082Q30.332,3.934,32.782,3.934Q33.3,3.934,34.028,3.99L33.846000000000004,5.544Q33.16,5.474,32.6,5.474ZM28.638,11.27Q28.624,11.41,28.624,11.648Q28.624,12.194,28.785,12.488Q28.946,12.782,29.324,12.901Q29.702,13.02,30.402,13.02Q31.172,13.02,31.613,12.873Q32.054,12.726,32.263999999999996,12.39Q32.474000000000004,12.054,32.544,11.466L32.6,10.878Q32.656,10.164,32.341,9.814Q32.025999999999996,9.464,31.228,9.464L30.276,9.464Q29.492,9.478,29.121,9.835Q28.75,10.192,28.68,10.892L28.638,11.27Z" fill="#FFFFFF" fill-opacity="1"/></g></g></svg>