<svg xmlns="http://www.w3.org/2000/svg" xmlns:xlink="http://www.w3.org/1999/xlink" fill="none" version="1.1" width="41" height="19" viewBox="0 0 41 19"><defs><linearGradient x1="0.32780131697654724" y1="0" x2="0.585506796836853" y2="1.2133057117462158" id="master_svg0_10_640"><stop offset="0%" stop-color="#AAACCD" stop-opacity="1"/><stop offset="36.42857074737549%" stop-color="#FFFFFF" stop-opacity="1"/><stop offset="41.428571939468384%" stop-color="#272B73" stop-opacity="1"/><stop offset="88.57142925262451%" stop-color="#CED0F6" stop-opacity="1"/></linearGradient><linearGradient x1="0.32081174850463867" y1="-0.14475098252296448" x2="0.9381531320595778" y2="0.968132125951253" id="master_svg1_10_0299"><stop offset="0%" stop-color="#000000" stop-opacity="1"/><stop offset="3.57142873108387%" stop-color="#FAA640" stop-opacity="1"/><stop offset="38.57142925262451%" stop-color="#E7912B" stop-opacity="1"/><stop offset="60.5435848236084%" stop-color="#674AFB" stop-opacity="1"/><stop offset="100%" stop-color="#E6E1FF" stop-opacity="1"/></linearGradient><linearGradient x1="0.32780131697654724" y1="0" x2="0.585506796836853" y2="1.2133057117462158" id="master_svg2_10_608"><stop offset="0%" stop-color="#E9E5FF" stop-opacity="1"/><stop offset="41.05943143367767%" stop-color="#674AFB" stop-opacity="1"/><stop offset="62.34120726585388%" stop-color="#D5CDFF" stop-opacity="1"/><stop offset="100%" stop-color="#FFFFFF" stop-opacity="1"/></linearGradient><filter id="master_svg3_10_1630" filterUnits="objectBoundingBox" color-interpolation-filters="sRGB" x="-0.06896551724137931" y="-0.058823529411764705" width="1.1379310344827587" height="1.2352941176470589"><feFlood flood-opacity="0" result="BackgroundImageFix"/><feColorMatrix in="SourceAlpha" type="matrix" values="0 0 0 0 0 0 0 0 0 0 0 0 0 0 0 0 0 0 127 0"/><feOffset dy="1" dx="0"/><feGaussianBlur stdDeviation="0.5"/><feColorMatrix type="matrix" values="0 0 0 0 0.10588235408067703 0 0 0 0 0 0 0 0 0 0.6470588445663452 0 0 0 0.5 0"/><feBlend mode="normal" in2="BackgroundImageFix" result="effect1_dropShadow"/><feBlend mode="normal" in="SourceGraphic" in2="effect1_dropShadow" result="shape"/></filter><linearGradient x1="15.548002183437347" y1="1" x2="20.5" y2="23.20542073249817" gradientUnits="userSpaceOnUse" id="master_svg4_10_603"><stop offset="0%" stop-color="#FFFFFF" stop-opacity="1"/><stop offset="39.28571343421936%" stop-color="#FFF6A0" stop-opacity="1"/></linearGradient></defs><g><rect x="0.5" y="0.5" width="40" height="18" rx="7.5" stroke="url(#master_svg0_10_640)" fill-opacity="0" fill="none" stroke-width="1"/><g><g><path d="M0 6C4.90527396329193e-16 2.686291501015239 2.6862915010152397 0 6 0L35 0C38.31370849898476 0 41 2.6862915010152397 41 6L41 13C41 16.31370849898476 38.31370849898476 19 35 19L6 19C2.6862915010152397 19 0 16.31370849898476 0 13Z" fill="url(#master_svg1_10_0299)" fill-opacity="1"/><path d="M0.5 6.5C0.5000000000000004 3.186291501015239 3.1862915010152397 0.5 6.5 0.5L34.5 0.5C37.81370849898476 0.5 40.5 3.1862915010152397 40.5 6.5L40.5 12.5C40.5 15.81370849898476 37.81370849898476 18.5 34.5 18.5L6.5 18.5C3.1862915010152397 18.5 0.5 15.81370849898476 0.5 12.5Z" stroke="url(#master_svg2_10_608)" fill-opacity="0" fill="none" stroke-width="1"/></g><g filter="url(#master_svg3_10_1630)"><path d="M7.82,3.99L14.596,3.99L14.414,5.502L9.29,5.502L8.926,8.428L13.405999999999999,8.428L13.224,9.926L8.744,9.926L8.366,12.978L13.616,12.978L13.434000000000001,14.504L6.532,14.504L7.82,3.99ZM17.578,14.56Q15.744,14.56,14.554,14.378L14.75,12.81Q16.458,13.02,17.759999999999998,13.02L17.942,13.02Q18.823999999999998,13.02,19.335,12.852Q19.846,12.684,20.07,12.362Q20.294,12.04,20.35,11.536Q20.378,11.284,20.378,11.186Q20.378,10.696,20.154,10.444Q19.93,10.192,19.489,10.087Q19.048000000000002,9.982,18.166,9.87Q17.158,9.758,16.57,9.52Q15.982,9.282,15.695,8.827Q15.408,8.372,15.408,7.602Q15.408,7.294,15.45,6.916Q15.632,5.334,16.514,4.662Q17.396,3.99,19.216,3.99L20.195999999999998,3.99Q21.259999999999998,3.99,22.548,4.018L22.366,5.558Q21.624000000000002,5.558,21.232,5.544L20.014,5.53L19.034,5.53Q18.012,5.53,17.543,5.887Q17.073999999999998,6.244,17.073999999999998,7.238Q17.073999999999998,7.672,17.242,7.889Q17.41,8.106,17.704,8.190000000000001Q17.997999999999998,8.274000000000001,18.656,8.372Q18.782,8.386,19.16,8.442Q20.195999999999998,8.596,20.811999999999998,8.847999999999999Q21.428,9.1,21.736,9.569Q22.044,10.038,22.044,10.836Q22.044,11.13,22.002,11.466Q21.862000000000002,12.628,21.393,13.3Q20.924,13.972,20.042,14.266Q19.16,14.56,17.759999999999998,14.56L17.578,14.56ZM23.136,13.342Q23.192,12.978,23.423,12.775Q23.654,12.572,24.004,12.572L24.41,12.572Q24.76,12.572,24.963,12.775Q25.166,12.978,25.11,13.342L25.054,13.762Q24.998,14.14,24.76,14.35Q24.522,14.56,24.172,14.56L23.766,14.56Q23.416,14.56,23.22,14.35Q23.024,14.14,23.08,13.762L23.136,13.342ZM27.476,5.53L27.658,3.99L34.448,3.99L34.308,5.25L29.352,14.504L27.504,14.504L32.306,5.53L27.476,5.53Z" fill="url(#master_svg4_10_603)" fill-opacity="1"/></g></g></g></svg>