<svg xmlns="http://www.w3.org/2000/svg" xmlns:xlink="http://www.w3.org/1999/xlink" fill="none" version="1.1" width="45" height="20" viewBox="0 0 45 20"><defs><linearGradient x1="0.32924145460128784" y1="0" x2="0.9754555489559447" y2="0.9984907218551197" id="master_svg0_188_03923"><stop offset="0%" stop-color="#ECC5A0" stop-opacity="1"/><stop offset="37.857142090797424%" stop-color="#CE8E5B" stop-opacity="1"/><stop offset="46.16190791130066%" stop-color="#CB915F" stop-opacity="1"/><stop offset="100%" stop-color="#F6C799" stop-opacity="1"/></linearGradient><linearGradient x1="0.32780131697654724" y1="0" x2="1.0690089789098178" y2="0.7048982915180322" id="master_svg1_1_04795"><stop offset="1.124268677085638%" stop-color="#FFFFFF" stop-opacity="1"/><stop offset="41.059428453445435%" stop-color="#FFFFFF" stop-opacity="0"/><stop offset="62.34120726585388%" stop-color="#FFFFFF" stop-opacity="0.4469728469848633"/><stop offset="100%" stop-color="#FFFFFF" stop-opacity="0.6000000238418579"/></linearGradient></defs><g><g><path d="M0.281009,17.7519C0.131795,18.9456,1.06257,20,2.26556,20L40.2344,20C41.2431,20,42.0939,19.2489,42.219,18.2481L44.219,2.24807C44.3682,1.05436,43.4374,0,42.2344,0L4.26556,0C3.25692,0,2.40612,0.751073,2.28101,1.75193L0.281009,17.7519Z" fill="url(#master_svg0_188_03923)" fill-opacity="1"/><path d="M0.281009,17.7519C0.131795,18.9456,1.06257,20,2.26556,20L40.2344,20C41.2431,20,42.0939,19.2489,42.219,18.2481L44.219,2.24807C44.3682,1.05436,43.4374,0,42.2344,0L4.26556,0C3.25692,0,2.40612,0.751073,2.28101,1.75193L0.281009,17.7519ZM1.27329,17.876Q1.21733,18.3236,1.51589,18.6618Q1.81444,19,2.26556,19L40.2344,19Q41.1172,19,41.2267,18.124L43.2267,2.12404Q43.2827,1.6764,42.9841,1.3382Q42.6856,1,42.2344,1L4.26556,1Q3.38278,1,3.27329,1.87597L1.27329,17.876Z" fill-rule="evenodd" fill="url(#master_svg1_1_04795)" fill-opacity="1"/></g><g><path d="M10.626,6.0560007L9.688,12.636L14.924,12.636L14.798,13.98L7.812,13.98Q7.406,13.98,7.203,13.714Q7,13.448,7,13.042L7.812,6.588L7.406,6.0560007L10.626,6.0560007ZM21.14,8.072L23.702,8.072L20.468,13.98L17.78,13.98L16.310000000000002,8.604L15.904,8.072L18.732,8.072L19.53,11.432L21.14,8.072ZM25.046,12.370000000000001L27.174,12.370000000000001L26.95,13.966000000000001L24.822,13.966000000000001L25.046,12.370000000000001ZM34.775999999999996,7.33L32.102000000000004,7.33L31.976,8.394L29.316,8.394L29.652,6L37.617999999999995,6L36.946,10.788L31.36,10.788L31.108,12.65L36.162,12.65L36.763999999999996,12.118L36.498000000000005,13.98L29.484,13.98Q29.078,13.98,28.84,13.707Q28.602,13.434000000000001,28.658,13.027999999999999L29.162,9.458L34.468,9.458L34.775999999999996,7.33Z" fill="#FFFFFF" fill-opacity="1"/></g></g></svg>