<svg xmlns="http://www.w3.org/2000/svg" xmlns:xlink="http://www.w3.org/1999/xlink" fill="none" version="1.1" width="46" height="20" viewBox="0 0 46 20"><defs><radialGradient cx="0" cy="0" r="1" gradientUnits="userSpaceOnUse" id="master_svg0_188_03768" gradientTransform="translate(21.568008995764103 19.187500476837158) rotate(90.7442510353734) scale(10.063348031332364 27.289242719245586)"><stop offset="0%" stop-color="#F4FC56" stop-opacity="1"/><stop offset="23.56753796339035%" stop-color="#D99270" stop-opacity="1"/><stop offset="43.112245202064514%" stop-color="#7B1269" stop-opacity="1"/><stop offset="70.61915993690491%" stop-color="#280662" stop-opacity="1"/><stop offset="100%" stop-color="#000000" stop-opacity="1"/></radialGradient><linearGradient x1="0.25184929370880127" y1="-0.08577881008386612" x2="0.9818547062443055" y2="0.15983040869050402" id="master_svg1_1_04624"><stop offset="0%" stop-color="#A7A9D3" stop-opacity="1"/><stop offset="20.4647034406662%" stop-color="#272B73" stop-opacity="1"/><stop offset="50.40966868400574%" stop-color="#FFFFFF" stop-opacity="1"/><stop offset="100%" stop-color="#9699CA" stop-opacity="1"/></linearGradient><linearGradient x1="0.32780131697654724" y1="0" x2="1.0727263239086675" y2="0.6779667953068682" id="master_svg2_1_04627"><stop offset="0%" stop-color="#AAACCD" stop-opacity="1"/><stop offset="36.42857074737549%" stop-color="#FFFFFF" stop-opacity="1"/><stop offset="41.428571939468384%" stop-color="#272B73" stop-opacity="1"/><stop offset="88.57142925262451%" stop-color="#CED0F6" stop-opacity="1"/></linearGradient><filter id="master_svg3_197_09086" filterUnits="objectBoundingBox" color-interpolation-filters="sRGB" x="-0.07258605687260876" y="-0.13018289961422222" width="1.1451721137452175" height="1.5207315984568888"><feFlood flood-opacity="0" result="BackgroundImageFix"/><feColorMatrix in="SourceAlpha" type="matrix" values="0 0 0 0 0 0 0 0 0 0 0 0 0 0 0 0 0 0 127 0"/><feOffset dy="1" dx="0"/><feGaussianBlur stdDeviation="0.5"/><feColorMatrix type="matrix" values="0 0 0 0 0.10588235408067703 0 0 0 0 0 0 0 0 0 0.6470588445663452 0 0 0 0.5 0"/><feBlend mode="normal" in2="BackgroundImageFix" result="effect1_dropShadow"/><feBlend mode="normal" in="SourceGraphic" in2="effect1_dropShadow" result="shape"/><feColorMatrix in="SourceAlpha" type="matrix" result="hardAlpha" values="0 0 0 0 0 0 0 0 0 0 0 0 0 0 0 0 0 0 127 0"/><feOffset dy="0.6000000238418579" dx="0"/><feGaussianBlur stdDeviation="0"/><feComposite in2="hardAlpha" operator="arithmetic" k2="-1" k3="1"/><feColorMatrix type="matrix" values="0 0 0 0 1 0 0 0 0 1 0 0 0 0 1 0 0 0 1 0"/><feBlend mode="normal" in2="shape" result="effect2_innerShadow"/></filter><linearGradient x1="0.44663920998573303" y1="-0.2506265640258789" x2="0.44663920998573303" y2="1" id="master_svg4_1_04618"><stop offset="0%" stop-color="#FFFFFF" stop-opacity="1"/><stop offset="20.36340683698654%" stop-color="#FFF9C4" stop-opacity="1"/><stop offset="37.5939816236496%" stop-color="#FFA84C" stop-opacity="1"/><stop offset="59.52380299568176%" stop-color="#FFED4A" stop-opacity="1"/><stop offset="100%" stop-color="#FFFAEA" stop-opacity="1"/></linearGradient></defs><g><g><path d="M0.287947,17.7465C0.135192,18.942,1.06663,20,2.27182,20L41.1726,20C42.1792,20,43.0289,19.2519,43.1565,18.2535L45.2009,2.25349C45.3537,1.05802,44.4223,0,43.2171,0L4.31626,0C3.3097,0,2.45997,0.74806,2.33239,1.74651L0.287947,17.7465Z" fill="url(#master_svg0_188_03768)" fill-opacity="1"/></g><g><path d="M0.287947,17.7465C0.135192,18.942,1.06663,20,2.27182,20L41.1726,20C42.1792,20,43.0289,19.2519,43.1565,18.2535L45.2009,2.25349C45.3537,1.05802,44.4223,0,43.2171,0L4.31626,0C3.3097,0,2.45997,0.74806,2.33239,1.74651L0.287947,17.7465ZM1.67666,17.924Q1.64229,18.1929,1.82147,18.3965Q2.00065,18.6,2.27182,18.6L41.1726,18.6Q41.7008,18.6,41.7678,18.076L43.8122,2.07605Q43.8466,1.80707,43.6674,1.60353Q43.4882,1.4,43.2171,1.4L4.31626,1.4Q3.78805,1.4,3.7211,1.92395L1.67666,17.924Z" fill-rule="evenodd" fill="url(#master_svg1_1_04624)" fill-opacity="1"/></g><g><path d="M0.287947,17.7465C0.135192,18.942,1.06663,20,2.27182,20L41.1726,20C42.1792,20,43.0289,19.2519,43.1565,18.2535L45.2009,2.25349C45.3537,1.05802,44.4223,0,43.2171,0L4.31626,0C3.3097,0,2.45997,0.74806,2.33239,1.74651L0.287947,17.7465ZM1.27988,17.8733Q1.2226,18.3216,1.52123,18.6608Q1.81987,19,2.27182,19L41.1726,19Q42.053,19,42.1646,18.1267L44.209,2.12675Q44.2663,1.67845,43.9677,1.33922Q43.669,1,43.2171,1L4.31626,1Q3.43591,1,3.32433,1.87325L1.27988,17.8733Z" fill-rule="evenodd" fill="url(#master_svg2_1_04627)" fill-opacity="1"/></g><g filter="url(#master_svg3_197_09086)"><path d="M12.496500000000001,6.0404997L11.592,12.3855L16.641,12.3855L16.5195,13.6815L9.783,13.6815Q9.3915,13.6815,9.19575,13.425Q9,13.1685,9,12.777000000000001L9.783,6.5535L9.3915,6.0404997L12.496500000000001,6.0404997ZM21.96,7.9845L24.430500000000002,7.9845L21.311999999999998,13.6815L18.72,13.6815L17.302500000000002,8.4975L16.911,7.9845L19.637999999999998,7.9845L20.4075,11.224499999999999L21.96,7.9845ZM25.0515,12.129L27.1035,12.129L26.8875,13.668L24.8355,13.668L25.0515,12.129ZM33.3,10.86L28.1835,10.86L28.8585,6L36.5535,6L35.595,12.7635Q35.541,13.155000000000001,35.237300000000005,13.41825Q34.933499999999995,13.6815,34.555499999999995,13.6815L27.7785,13.6815L27.981,12.399000000000001L33.084,12.399000000000001L33.3,10.86ZM31.248,7.269L30.9105,9.5775L33.489000000000004,9.5775L33.813,7.269L31.248,7.269Z" fill="url(#master_svg4_1_04618)" fill-opacity="1"/></g></g></svg>