<svg xmlns="http://www.w3.org/2000/svg" xmlns:xlink="http://www.w3.org/1999/xlink" fill="none" version="1.1" width="45" height="20" viewBox="0 0 45 20"><defs><linearGradient x1="0.32924145460128784" y1="0" x2="0.9754555489559447" y2="0.9984907218551197" id="master_svg0_1_04866"><stop offset="0%" stop-color="#FFFFFF" stop-opacity="1"/><stop offset="30.143380165100098%" stop-color="#FFC44F" stop-opacity="1"/><stop offset="45.27497589588165%" stop-color="#F49300" stop-opacity="1"/><stop offset="63.81736397743225%" stop-color="#FFB554" stop-opacity="1"/><stop offset="96.8984067440033%" stop-color="#FFFC60" stop-opacity="1"/></linearGradient><linearGradient x1="0.32780131697654724" y1="0" x2="1.0690089789098178" y2="0.7048982915180322" id="master_svg1_1_04795"><stop offset="1.124268677085638%" stop-color="#FFFFFF" stop-opacity="1"/><stop offset="41.059428453445435%" stop-color="#FFFFFF" stop-opacity="0"/><stop offset="62.34120726585388%" stop-color="#FFFFFF" stop-opacity="0.4469728469848633"/><stop offset="100%" stop-color="#FFFFFF" stop-opacity="0.6000000238418579"/></linearGradient></defs><g><g><path d="M0.281009,17.7519C0.131795,18.9456,1.06257,20,2.26556,20L40.2344,20C41.2431,20,42.0939,19.2489,42.219,18.2481L44.219,2.24807C44.3682,1.05436,43.4374,0,42.2344,0L4.26556,0C3.25692,0,2.40612,0.751073,2.28101,1.75193L0.281009,17.7519Z" fill="url(#master_svg0_1_04866)" fill-opacity="1"/><path d="M0.281009,17.7519C0.131795,18.9456,1.06257,20,2.26556,20L40.2344,20C41.2431,20,42.0939,19.2489,42.219,18.2481L44.219,2.24807C44.3682,1.05436,43.4374,0,42.2344,0L4.26556,0C3.25692,0,2.40612,0.751073,2.28101,1.75193L0.281009,17.7519ZM1.27329,17.876Q1.21733,18.3236,1.51589,18.6618Q1.81444,19,2.26556,19L40.2344,19Q41.1172,19,41.2267,18.124L43.2267,2.12404Q43.2827,1.6764,42.9841,1.3382Q42.6856,1,42.2344,1L4.26556,1Q3.38278,1,3.27329,1.87597L1.27329,17.876Z" fill-rule="evenodd" fill="url(#master_svg1_1_04795)" fill-opacity="1"/></g><g><path d="M10.626,6.0420008L9.688,12.622L14.924,12.622L14.798,13.966000000000001L7.812,13.966000000000001Q7.406,13.966000000000001,7.203,13.7Q7,13.434000000000001,7,13.027999999999999L7.812,6.574L7.406,6.0420008L10.626,6.0420008ZM21.14,8.058L23.702,8.058L20.468,13.966000000000001L17.78,13.966000000000001L16.310000000000002,8.59L15.904,8.058L18.732,8.058L19.53,11.418L21.14,8.058ZM25.046,12.356L27.174,12.356L26.95,13.952L24.822,13.952L25.046,12.356ZM33.964,10.508L29.176,10.508L29.358,9.178L34.146,9.178L34.412,7.316L29.092,7.316L29.274,6L37.254000000000005,6L36.260000000000005,13.014Q36.204,13.42,35.888999999999996,13.693Q35.574,13.966000000000001,35.182,13.966000000000001L28.154,13.966000000000001L28.35,12.636L33.656,12.636L33.964,10.508Z" fill="#FFFFFF" fill-opacity="1"/></g></g></svg>