<svg xmlns="http://www.w3.org/2000/svg" xmlns:xlink="http://www.w3.org/1999/xlink" fill="none" version="1.1" width="45" height="20" viewBox="0 0 45 20"><defs><linearGradient x1="0.32081174850463867" y1="-0.14475098252296448" x2="0.9601119763424822" y2="0.9392495607318819" id="master_svg0_188_04117"><stop offset="0%" stop-color="#87F791" stop-opacity="1"/><stop offset="38.01852762699127%" stop-color="#36B53F" stop-opacity="1"/><stop offset="60.5435848236084%" stop-color="#37BD44" stop-opacity="1"/><stop offset="100%" stop-color="#B2FE90" stop-opacity="1"/></linearGradient><linearGradient x1="0.32780131697654724" y1="0" x2="1.0690089789098178" y2="0.7048982915180322" id="master_svg1_188_04133"><stop offset="0%" stop-color="#68D87C" stop-opacity="1"/><stop offset="41.05943143367767%" stop-color="#38B942" stop-opacity="1"/><stop offset="62.34120726585388%" stop-color="#40C650" stop-opacity="1"/><stop offset="100%" stop-color="#85D58B" stop-opacity="1"/></linearGradient></defs><g><g><path d="M0.281009,17.7519C0.131795,18.9456,1.06257,20,2.26556,20L40.2344,20C41.2431,20,42.0939,19.2489,42.219,18.2481L44.219,2.24807C44.3682,1.05436,43.4374,0,42.2344,0L4.26556,0C3.25692,0,2.40612,0.751073,2.28101,1.75193L0.281009,17.7519Z" fill="url(#master_svg0_188_04117)" fill-opacity="1"/><path d="M0.281009,17.7519C0.131795,18.9456,1.06257,20,2.26556,20L40.2344,20C41.2431,20,42.0939,19.2489,42.219,18.2481L44.219,2.24807C44.3682,1.05436,43.4374,0,42.2344,0L4.26556,0C3.25692,0,2.40612,0.751073,2.28101,1.75193L0.281009,17.7519ZM1.27329,17.876Q1.21733,18.3236,1.51589,18.6618Q1.81444,19,2.26556,19L40.2344,19Q41.1172,19,41.2267,18.124L43.2267,2.12404Q43.2827,1.6764,42.9841,1.3382Q42.6856,1,42.2344,1L4.26556,1Q3.38278,1,3.27329,1.87597L1.27329,17.876Z" fill-rule="evenodd" fill="url(#master_svg1_188_04133)" fill-opacity="1"/></g><g><path d="M10.626,6.0420008L9.688,12.622L14.924,12.622L14.798,13.966000000000001L7.812,13.966000000000001Q7.406,13.966000000000001,7.203,13.7Q7,13.434000000000001,7,13.027999999999999L7.812,6.574L7.406,6.0420008L10.626,6.0420008ZM21.14,8.058L23.702,8.058L20.468,13.966000000000001L17.78,13.966000000000001L16.310000000000002,8.59L15.904,8.058L18.732,8.058L19.53,11.418L21.14,8.058ZM25.046,12.356L27.174,12.356L26.95,13.952L24.822,13.952L25.046,12.356ZM29.792,6L32.844,6L31.388,11.04L33.46,11.04L34.104,6.518001L33.641999999999996,6L36.834,6L36.120000000000005,11.04L37.184,11.04L37.001999999999995,12.370000000000001L35.938,12.370000000000001L35.714,13.966000000000001L33.054,13.966000000000001L33.278,12.370000000000001L28.504,12.370000000000001L28.686,11.04L30.1,6.336L29.792,6Z" fill="#FFFFFF" fill-opacity="1"/></g></g></svg>