<svg xmlns="http://www.w3.org/2000/svg" xmlns:xlink="http://www.w3.org/1999/xlink" fill="none" version="1.1" width="40" height="20" viewBox="0 0 40 20"><defs><linearGradient x1="0.32924145460128784" y1="0" x2="0.8941224712132386" y2="1.104662459679923" id="master_svg0_1_05251"><stop offset="0%" stop-color="#E6E2F6" stop-opacity="1"/><stop offset="31.42857253551483%" stop-color="#C5C4CA" stop-opacity="1"/><stop offset="46.16190791130066%" stop-color="#A19CB4" stop-opacity="1"/><stop offset="100%" stop-color="#C8C5D3" stop-opacity="1"/></linearGradient><linearGradient x1="0.32780131697654724" y1="0" x2="1.0294229386743359" y2="0.8444900359042323" id="master_svg1_1_05253"><stop offset="1.124268677085638%" stop-color="#FFFFFF" stop-opacity="0.5400000214576721"/><stop offset="41.059428453445435%" stop-color="#FFFFFF" stop-opacity="0"/><stop offset="62.34120726585388%" stop-color="#FFFFFF" stop-opacity="0.15000000596046448"/><stop offset="100%" stop-color="#FFFFFF" stop-opacity="0.25999999046325684"/></linearGradient></defs><g><g><path d="M0.246763,17.7791C0.115126,18.9639,1.04251,20,2.23453,20L35.5433,20C36.5624,20,37.4185,19.2337,37.531,18.2209L39.3088,2.22086C39.4404,1.03613,38.5131,0,37.321,0L4.01231,0C2.99321,0,2.13708,0.766271,2.02454,1.77914L0.246763,17.7791Z" fill="url(#master_svg0_1_05251)" fill-opacity="1"/><path d="M0.246763,17.7791C0.115126,18.9639,1.04251,20,2.23453,20L35.5433,20C36.5624,20,37.4185,19.2337,37.531,18.2209L39.3088,2.22086C39.4404,1.03613,38.5131,0,37.321,0L4.01231,0C2.99321,0,2.13708,0.766271,2.02454,1.77914L0.246763,17.7791ZM1.24065,17.8896Q1.19128,18.3338,1.4894,18.6669Q1.78752,19,2.23453,19L35.5433,19Q36.4383,19,36.5371,18.1104L38.3149,2.11043Q38.3643,1.66616,38.0662,1.33308Q37.768,1,37.321,1L4.01231,1Q3.11726,1,3.01842,1.88957L1.24065,17.8896Z" fill-rule="evenodd" fill="url(#master_svg1_1_05253)" fill-opacity="1"/></g><g><path d="M10.626,6.182L9.688,12.762L14.924,12.762L14.798,14.106L7.812,14.106Q7.406,14.106,7.203,13.84Q7,13.574,7,13.168L7.812,6.714L7.406,6.182L10.626,6.182ZM21.14,8.198L23.702,8.198L20.468,14.106L17.78,14.106L16.310000000000002,8.73L15.904,8.198L18.732,8.198L19.53,11.558L21.14,8.198ZM25.046,12.496L27.174,12.496L26.95,14.092L24.822,14.092L25.046,12.496ZM31.584,14.106L28.924,14.106L29.806,7.834L28.714,7.9879999999999995L28.924,6.532L32.718,6L31.584,14.106Z" fill="#FFFFFF" fill-opacity="1"/></g></g></svg>