<svg xmlns="http://www.w3.org/2000/svg" xmlns:xlink="http://www.w3.org/1999/xlink" fill="none" version="1.1" width="44" height="44" viewBox="0 0 44 44"><defs><clipPath id="master_svg0_8455_16392/4740_34733/4740_28103"><rect x="6" y="6" width="32" height="32" rx="0"/></clipPath><linearGradient x1="0.3081498444080353" y1="1.3192399740219116" x2="0.31976482577216403" y2="0.24155411894795079" id="master_svg1_4740_32524"><stop offset="0%" stop-color="#7928FF" stop-opacity="1"/><stop offset="100%" stop-color="#4E00FF" stop-opacity="1"/></linearGradient><linearGradient x1="0.3081498444080353" y1="1.3192399740219116" x2="0.3126440820430854" y2="0.2414957800125767" id="master_svg2_4740_32506"><stop offset="0%" stop-color="#4E00FF" stop-opacity="1"/><stop offset="100%" stop-color="#7928FF" stop-opacity="1"/></linearGradient><linearGradient x1="0.13906249403953552" y1="0.08190104365348816" x2="0.8179361820220947" y2="0.9727050662040709" id="master_svg3_4740_29418"><stop offset="0%" stop-color="#FFFFFF" stop-opacity="1"/><stop offset="100%" stop-color="#FFE900" stop-opacity="1"/></linearGradient><linearGradient x1="0.08345170319080353" y1="0" x2="0.7036576867103577" y2="0.7995161414146423" id="master_svg4_4740_30478"><stop offset="0%" stop-color="#FFB200" stop-opacity="1"/><stop offset="100%" stop-color="#FFF48A" stop-opacity="1"/></linearGradient></defs><g><rect x="0" y="0" width="44" height="44" rx="22" fill="#FFFFFF" fill-opacity="1"/><g clip-path="url(#master_svg0_8455_16392/4740_34733/4740_28103)"><g><path d="M14,18.8C14,18.358172,14.358172,18,14.8,18L32.4,18C32.8418,18,33.2,18.358172,33.2,18.8L33.2,29.2C33.2,31.409100000000002,31.4091,33.2,29.2,33.2L18,33.2C15.79086,33.2,14,31.409100000000002,14,29.2L14,18.8Z" fill="url(#master_svg1_4740_32524)" fill-opacity="1"/></g><g><path d="M11.60009765625,11.600048828125C11.60009765625,11.158220828125,11.95826965625,10.800048828125,12.40009765625,10.800048828125L25.20009765625,10.800048828125C27.40919765625,10.800048828125,29.20009765625,12.590908828125,29.20009765625,14.800048828125L29.20009765625,32.400048828125C29.20009765625,32.841848828124995,28.84189765625,33.200048828125,28.40009765625,33.200048828125L15.60009765625,33.200048828125C13.39095765625,33.200048828125,11.60009765625,31.409148828125,11.60009765625,29.200048828125L11.60009765625,11.600048828125Z" fill="url(#master_svg2_4740_32506)" fill-opacity="1"/></g><g><ellipse cx="25.99990224838257" cy="26.00002431869507" rx="5.599999904632568" ry="5.599999904632568" fill="url(#master_svg3_4740_29418)" fill-opacity="1"/></g><g><ellipse cx="26" cy="26" rx="4" ry="4" fill="url(#master_svg4_4740_30478)" fill-opacity="1"/></g><g><path d="M14.799999237060547,17.5199755859375L14.799999237060547,16.0799755859375C14.799999237060547,15.8148785859375,15.014902237060546,15.5999755859375,15.279999237060547,15.5999755859375L23.119999237060547,15.5999755859375C23.385099237060547,15.5999755859375,23.599999237060548,15.8148785859375,23.599999237060548,16.0799755859375L23.599999237060548,17.5199755859375C23.599999237060548,17.7850755859375,23.385099237060547,17.9999755859375,23.119999237060547,17.9999755859375L15.279999237060547,17.9999755859375C15.014902237060546,17.9999755859375,14.799999237060547,17.7850755859375,14.799999237060547,17.5199755859375Z" fill="#FFFFFF" fill-opacity="1"/></g><g><path d="M14.799999237060547,23.119951171875L14.799999237060547,21.679951171875C14.799999237060547,21.414854171875,15.014902237060546,21.199951171875,15.279999237060547,21.199951171875L18.319999237060546,21.199951171875C18.585099237060547,21.199951171875,18.799999237060547,21.414854171875,18.799999237060547,21.679951171875L18.799999237060547,23.119951171875C18.799999237060547,23.385051171875,18.585099237060547,23.599951171875,18.319999237060546,23.599951171875L15.279999237060547,23.599951171875C15.014902237060546,23.599951171875,14.799999237060547,23.385051171875,14.799999237060547,23.119951171875Z" fill="#FFFFFF" fill-opacity="1"/></g></g></g></svg>