<svg xmlns="http://www.w3.org/2000/svg" xmlns:xlink="http://www.w3.org/1999/xlink" fill="none" version="1.1" width="20" height="20" viewBox="0 0 20 20"><g><g></g><g></g><g><ellipse cx="10" cy="10" rx="7.75" ry="7.75" fill="#F8324A" fill-opacity="1"/></g><g><path d="M12.999844687500001,13.749844687500001C12.8007846875,13.750784687500001,12.6097346875,13.6714846875,12.4698446875,13.529844687499999L6.4698476875,7.5298446875C6.1944880875,7.2343376875,6.2026128875,6.7738376875,6.4882246875,6.4882256875C6.7738376875,6.2026133875,7.2343376875,6.1944880875,7.5298446875,6.4698476875L13.529844687499999,12.4698446875C13.8223046875,12.7626646875,13.8223046875,13.2370246875,13.529844687499999,13.529844687499999C13.389964687500001,13.6714846875,13.1989146875,13.750784687500001,12.999844687500001,13.749844687500001Z" fill="#FFFFFF" fill-opacity="1"/></g><g><path d="M6.99982828125,13.749844687500001C6.80076228125,13.750784687500001,6.60971228125,13.6714846875,6.46982828125,13.529844687499999C6.17737488125,13.2370346875,6.17737488125,12.7626646875,6.46982828125,12.4698446875L12.469828281249999,6.4698476875C12.76533828125,6.1944884875,13.225838281249999,6.2026128875,13.51144828125,6.4882256875C13.797068281249999,6.7738376875,13.80518828125,7.2343386875,13.529828281250001,7.5298446875L7.5298282812499995,13.529844687499999C7.38994828125,13.6714846875,7.19889528125,13.750784687500001,6.99982828125,13.749844687500001Z" fill="#FFFFFF" fill-opacity="1"/></g></g></svg>