<svg xmlns="http://www.w3.org/2000/svg" xmlns:xlink="http://www.w3.org/1999/xlink" fill="none" version="1.1" width="40" height="20" viewBox="0 0 40 20"><defs><linearGradient x1="0.32924145460128784" y1="0" x2="0.8767072847095373" y2="0.9680816941201538" id="master_svg0_188_05683"><stop offset="0%" stop-color="#BCE3FF" stop-opacity="1"/><stop offset="38.01852762699127%" stop-color="#2768FF" stop-opacity="1"/><stop offset="58.50091576576233%" stop-color="#021BFF" stop-opacity="1"/><stop offset="69.8630154132843%" stop-color="#2802FF" stop-opacity="1"/><stop offset="100%" stop-color="#32FCFF" stop-opacity="1"/></linearGradient><linearGradient x1="0.32780131697654724" y1="0" x2="1.0294229386743359" y2="0.8444900359042323" id="master_svg1_1_04795"><stop offset="1.124268677085638%" stop-color="#FFFFFF" stop-opacity="1"/><stop offset="41.059428453445435%" stop-color="#FFFFFF" stop-opacity="0"/><stop offset="62.34120726585388%" stop-color="#FFFFFF" stop-opacity="0.4469728469848633"/><stop offset="100%" stop-color="#FFFFFF" stop-opacity="0.6000000238418579"/></linearGradient><filter id="master_svg2_197_09061" filterUnits="objectBoundingBox" color-interpolation-filters="sRGB" x="-0.06508297773044888" y="-0.12597632081134164" width="1.1301659554608978" height="1.5039052832453665"><feFlood flood-opacity="0" result="BackgroundImageFix"/><feColorMatrix in="SourceAlpha" type="matrix" values="0 0 0 0 0 0 0 0 0 0 0 0 0 0 0 0 0 0 127 0"/><feOffset dy="1" dx="0"/><feGaussianBlur stdDeviation="0.5"/><feColorMatrix type="matrix" values="0 0 0 0 0.10588235408067703 0 0 0 0 0 0 0 0 0 0.6470588445663452 0 0 0 0.5 0"/><feBlend mode="normal" in2="BackgroundImageFix" result="effect1_dropShadow"/><feBlend mode="normal" in="SourceGraphic" in2="effect1_dropShadow" result="shape"/></filter><linearGradient x1="0.32924145460128784" y1="0" x2="0.9936195087748327" y2="0.3391094669866912" id="master_svg3_188_05841"><stop offset="0%" stop-color="#FFFFFF" stop-opacity="1"/><stop offset="39.28571343421936%" stop-color="#ECFAFF" stop-opacity="1"/><stop offset="52.85714268684387%" stop-color="#C7E9FF" stop-opacity="1"/><stop offset="100%" stop-color="#FFFAC8" stop-opacity="1"/></linearGradient></defs><g><g><path d="M0.246763,17.7791C0.115126,18.9639,1.04251,20,2.23453,20L35.5433,20C36.5624,20,37.4185,19.2337,37.531,18.2209L39.3088,2.22086C39.4404,1.03613,38.5131,0,37.321,0L4.01231,0C2.99321,0,2.13708,0.766271,2.02454,1.77914L0.246763,17.7791Z" fill="url(#master_svg0_188_05683)" fill-opacity="1"/><path d="M0.246763,17.7791C0.115126,18.9639,1.04251,20,2.23453,20L35.5433,20C36.5624,20,37.4185,19.2337,37.531,18.2209L39.3088,2.22086C39.4404,1.03613,38.5131,0,37.321,0L4.01231,0C2.99321,0,2.13708,0.766271,2.02454,1.77914L0.246763,17.7791ZM1.24065,17.8896Q1.19128,18.3338,1.4894,18.6669Q1.78752,19,2.23453,19L35.5433,19Q36.4383,19,36.5371,18.1104L38.3149,2.11043Q38.3643,1.66616,38.0662,1.33308Q37.768,1,37.321,1L4.01231,1Q3.11726,1,3.01842,1.88957L1.24065,17.8896Z" fill-rule="evenodd" fill="url(#master_svg1_1_04795)" fill-opacity="1"/></g><g filter="url(#master_svg2_197_09061)"><path d="M8.626,6.0139999L7.688000000000001,12.594000000000001L12.924,12.594000000000001L12.798,13.937999999999999L5.812,13.937999999999999Q5.406,13.937999999999999,5.203,13.672Q5,13.405999999999999,5,13L5.812,6.546L5.406,6.0139999L8.626,6.0139999ZM19.14,8.03L21.702,8.03L18.468,13.937999999999999L15.78,13.937999999999999L14.31,8.562L13.904,8.03L16.732,8.03L17.53,11.39L19.14,8.03ZM23.046,12.328L25.174,12.328L24.95,13.924L22.822,13.924L23.046,12.328ZM32.132000000000005,12.608L32.482,10.214L27.162,10.214L27.694,6.476L27.232,6L35.730000000000004,6L35.548,7.288L30.242,7.288L30.004,8.884L35.324,8.884L34.806,12.608L34.75,12.986Q34.68,13.392,34.372,13.665Q34.064,13.937999999999999,33.658,13.937999999999999L26.644,13.937999999999999L26.896,12.076L27.358,12.608L32.132000000000005,12.608Z" fill="url(#master_svg3_188_05841)" fill-opacity="1"/></g></g></svg>