<svg xmlns="http://www.w3.org/2000/svg" xmlns:xlink="http://www.w3.org/1999/xlink" fill="none" version="1.1" width="40" height="20" viewBox="0 0 40 20"><defs><linearGradient x1="0.32924145460128784" y1="0" x2="0.5" y2="1.3062012195587158" id="master_svg0_1_05251"><stop offset="0%" stop-color="#E6E2F6" stop-opacity="1"/><stop offset="31.42857253551483%" stop-color="#C5C4CA" stop-opacity="1"/><stop offset="46.16190791130066%" stop-color="#A19CB4" stop-opacity="1"/><stop offset="100%" stop-color="#C8C5D3" stop-opacity="1"/></linearGradient><linearGradient x1="0.32780131697654724" y1="0" x2="0.585506796836853" y2="1.2133057117462158" id="master_svg1_1_05253"><stop offset="1.124268677085638%" stop-color="#FFFFFF" stop-opacity="0.5400000214576721"/><stop offset="41.059428453445435%" stop-color="#FFFFFF" stop-opacity="0"/><stop offset="62.34120726585388%" stop-color="#FFFFFF" stop-opacity="0.15000000596046448"/><stop offset="100%" stop-color="#FFFFFF" stop-opacity="0.25999999046325684"/></linearGradient></defs><g><g><path d="M0.246763,17.7791C0.115126,18.9639,1.04251,20,2.23453,20L35.5433,20C36.5624,20,37.4185,19.2337,37.531,18.2209L39.3088,2.22086C39.4404,1.03613,38.5131,0,37.321,0L4.01231,0C2.99321,0,2.13708,0.766271,2.02454,1.77914L0.246763,17.7791Z" fill="url(#master_svg0_1_05251)" fill-opacity="1"/><path d="M0.246763,17.7791C0.115126,18.9639,1.04251,20,2.23453,20L35.5433,20C36.5624,20,37.4185,19.2337,37.531,18.2209L39.3088,2.22086C39.4404,1.03613,38.5131,0,37.321,0L4.01231,0C2.99321,0,2.13708,0.766271,2.02454,1.77914L0.246763,17.7791ZM1.24065,17.8896Q1.19128,18.3338,1.4894,18.6669Q1.78752,19,2.23453,19L35.5433,19Q35.9254,19,36.2102,18.7451Q36.4949,18.4903,36.5371,18.1104L38.3149,2.11043Q38.3643,1.66616,38.0662,1.33308Q37.768,1,37.321,1L4.01231,1Q3.63015,1,3.34539,1.25487Q3.06063,1.50974,3.01842,1.88957L1.24065,17.8896Z" fill-rule="evenodd" fill="url(#master_svg1_1_05253)" fill-opacity="1"/></g><g><path d="M9.44527796875,6.0420008L8.611497968750001,12.622L13.26572796875,12.622L13.153727968750001,13.966000000000001L6.9439459687500005,13.966000000000001Q6.58305696875,13.966000000000001,6.40261196875,13.7Q6.22216796875,13.434000000000001,6.22216796875,13.027999999999999L6.9439459687500005,6.574L6.58305696875,6.0420008L9.44527796875,6.0420008ZM18.79106796875,8.058L21.06836796875,8.058L18.193767968750002,13.966000000000001L15.80438796875,13.966000000000001L14.49772796875,8.59L14.136837968750001,8.058L16.65056796875,8.058L17.35996796875,11.418L18.79106796875,8.058ZM22.26306796875,12.356L24.15456796875,12.356L23.95546796875,13.952L22.06396796875,13.952L22.26306796875,12.356ZM26.33236796875,6.952001Q26.38216796875,6.546,26.66216796875,6.273001Q26.94216796875,6,27.30306796875,6L33.53776796875,6L32.66656796875,13.014Q32.60436796875,13.42,32.33056796875,13.693Q32.05686796875,13.966000000000001,31.69596796875,13.966000000000001L25.46126796875,13.966000000000001L26.33236796875,6.952001ZM28.65946796875,7.316L27.98746796875,12.636L30.33946796875,12.636L31.01146796875,7.316L28.65946796875,7.316Z" fill="#FFFFFF" fill-opacity="1"/></g></g></svg>