<svg xmlns="http://www.w3.org/2000/svg" xmlns:xlink="http://www.w3.org/1999/xlink" fill="none" version="1.1" width="44" height="44" viewBox="0 0 44 44"><defs><clipPath id="master_svg0_2_1751"><rect x="6" y="6" width="32" height="32" rx="0"/></clipPath><linearGradient x1="0.3081498444080353" y1="1.3192399740219116" x2="0.31542968749999994" y2="0.2415073961019516" id="master_svg1_2_491"><stop offset="0%" stop-color="#232327" stop-opacity="1"/><stop offset="100%" stop-color="#7A7B90" stop-opacity="1"/></linearGradient><linearGradient x1="0.08345170319080353" y1="0" x2="0.7036576867103577" y2="0.7995161414146423" id="master_svg2_2_667"><stop offset="0%" stop-color="#7A7B90" stop-opacity="1"/><stop offset="100%" stop-color="#9D9EB6" stop-opacity="1"/></linearGradient></defs><g><g clip-path="url(#master_svg0_2_1751)"><g><ellipse cx="22" cy="22" rx="14" ry="14" fill="url(#master_svg1_2_491)" fill-opacity="1"/></g><g transform="matrix(0.8660253882408142,-0.5,0.5,0.8660253882408142,-4.916620313784563,7.227256746113028)"><path d="M11.773555074401855,24.201366999816894C11.291903074401855,25.525966999816895,11.291903074401855,26.977766999816893,11.773555074401855,28.302266999816894L14.984024074401855,37.131066999816895C15.303184074401855,38.0087669998169,16.544464074401855,38.0087669998169,16.863614074401855,37.131066999816895L20.074084074401856,28.302266999816894C20.555734074401855,26.977766999816893,20.555734074401855,25.525966999816895,20.074084074401856,24.201366999816894L16.863614074401855,15.372596999816894C16.544464074401855,14.494926999816894,15.303184074401855,14.494926999816894,14.984024074401855,15.372596999816894L11.773555074401855,24.201366999816894Z" fill="#ABADC1" fill-opacity="1"/></g><g><ellipse cx="22" cy="22" rx="3" ry="3" fill="url(#master_svg2_2_667)" fill-opacity="1"/></g></g></g></svg>